<svg xmlns="http://www.w3.org/2000/svg" viewBox="0 0 500 500"><g id="freepik--Floor--inject-173"><path id="freepik--floor--inject-173" d="M77.66,249.14c-95.18,54.95-95.17,144,0,199s249.49,54.95,344.67,0,95.17-144,0-199S172.84,194.19,77.66,249.14Z" style="fill:#fafafa"></path></g><g id="freepik--Garlands--inject-173"><g id="freepik--Festoon--inject-173"><path d="M411.6,53.94c-37,0-74.13-11.31-104-33.31l.64-.88c51,37.58,123.28,43.78,179.82,15.45l.49,1A172,172,0,0,1,411.6,53.94Z" style="fill:#37474f"></path><path d="M310.21,25.52l.23,15.53L322.29,33A76.4,76.4,0,0,1,310.21,25.52Z" style="fill:#f5f5f5"></path><path d="M354.85,46.79l4.22,14.94,9.37-10.85A76.55,76.55,0,0,1,354.85,46.79Z" style="fill:#f5f5f5"></path><path d="M331.59,37.44l2.07,15.38,10.81-9.42A75.33,75.33,0,0,1,331.59,37.44Z" style="fill:#e0e0e0"></path><path d="M378.2,52.81,384.57,67l7.67-12.11A75.49,75.49,0,0,1,378.2,52.81Z" style="fill:#e0e0e0"></path><path d="M400.68,55.61l8,13.3L414.87,56A75.66,75.66,0,0,1,400.68,55.61Z" style="fill:#f5f5f5"></path><path d="M450,51.5l11.17,10.79,2.64-14.09A76.36,76.36,0,0,1,450,51.5Z" style="fill:#f5f5f5"></path><path d="M425.15,55.14l9.54,12.25,4.59-13.58A76.38,76.38,0,0,1,425.15,55.14Z" style="fill:#e0e0e0"></path><path d="M473.16,45l12.63,9,.54-14.33A75.57,75.57,0,0,1,473.16,45Z" style="fill:#e0e0e0"></path><path d="M489.39,86.26C459.25,74.63,432.22,55,412.91,29.1l-.88.65a172,172,0,0,0,60.82,50.4q8.08,4,16.54,7.29Z" style="fill:#455a64"></path><path d="M412.07,33.31,407.5,48.14l13.76-4A75.74,75.74,0,0,1,412.07,33.31Z" style="fill:#e0e0e0"></path><path d="M448,67.3l-.6,15.52,12.26-7.43A75.93,75.93,0,0,1,448,67.3Z" style="fill:#e0e0e0"></path><path d="M428.74,51.23,426,66.51l13.19-5.63A75.42,75.42,0,0,1,428.74,51.23Z" style="fill:#f5f5f5"></path><path d="M468.33,80.23,470,95.67l11-9.15A76.57,76.57,0,0,1,468.33,80.23Z" style="fill:#f5f5f5"></path><path d="M88.4,52.15c37,0,74.13-11.31,104-33.31l-.64-.87c-51,37.57-123.28,43.78-179.82,15.45l-.49,1A172.12,172.12,0,0,0,88.4,52.15Z" style="fill:#37474f"></path><path d="M189.79,23.74l-.23,15.52-11.85-8.07A75.64,75.64,0,0,0,189.79,23.74Z" style="fill:#f5f5f5"></path><path d="M145.15,45l-4.22,14.94-9.37-10.85A75.73,75.73,0,0,0,145.15,45Z" style="fill:#f5f5f5"></path><path d="M168.41,35.65,166.34,51l-10.81-9.42A76.12,76.12,0,0,0,168.41,35.65Z" style="fill:#e0e0e0"></path><path d="M121.8,51l-6.37,14.16-7.67-12.11A75.49,75.49,0,0,0,121.8,51Z" style="fill:#e0e0e0"></path><path d="M99.32,53.82l-8,13.3L85.13,54.18A74.82,74.82,0,0,0,99.32,53.82Z" style="fill:#f5f5f5"></path><path d="M50.05,49.72,38.88,60.5,36.24,46.41A76.4,76.4,0,0,0,50.05,49.72Z" style="fill:#f5f5f5"></path><path d="M74.85,53.35,65.31,65.6,60.72,52A75.53,75.53,0,0,0,74.85,53.35Z" style="fill:#e0e0e0"></path><path d="M26.84,43.17l-12.63,9-.54-14.32A76.37,76.37,0,0,0,26.84,43.17Z" style="fill:#e0e0e0"></path><path d="M12.42,75.22c31.78-5.77,62-20,85.84-41.8l.73.8a172.05,172.05,0,0,1-69.18,38.1q-8.7,2.46-17.61,4.06Z" style="fill:#455a64"></path><path d="M98.29,37.7,100,53.13,87.24,46.61A76.54,76.54,0,0,0,98.29,37.7Z" style="fill:#e0e0e0"></path><path d="M56.65,64.36,54.32,79.71,43.67,70.12A75.82,75.82,0,0,0,56.65,64.36Z" style="fill:#e0e0e0"></path><path d="M78.56,52.19l-.14,15.52-11.9-8A75.77,75.77,0,0,0,78.56,52.19Z" style="fill:#f5f5f5"></path><path d="M34.23,73.25,29.68,88.09,20.55,77A75.84,75.84,0,0,0,34.23,73.25Z" style="fill:#f5f5f5"></path></g></g><g id="freepik--Shadows--inject-173"><polygon id="freepik--Shadow--inject-173" points="246.58 289.4 45.77 405.34 124.6 450.77 325.42 334.83 246.58 289.4" style="fill:#e0e0e0"></polygon><ellipse id="freepik--shadow--inject-173" cx="429.33" cy="341.67" rx="57.86" ry="33.4" style="fill:#e0e0e0"></ellipse><ellipse id="freepik--shadow--inject-173" cx="356.28" cy="419.43" rx="53.93" ry="31.13" style="fill:#e0e0e0"></ellipse><path id="freepik--shadow--inject-173" d="M72.79,430.6c9.39,5.48,9.39,14.37,0,19.85s-24.61,5.49-34,0-9.39-14.37,0-19.85S63.4,425.12,72.79,430.6Z" style="fill:#e0e0e0"></path></g><g id="freepik--puppet-show--inject-173"><g id="freepik--Stage--inject-173"><g id="freepik--stage--inject-173"><polygon points="59.76 331.61 59.76 405.78 124 442.87 124 368.67 59.76 331.61" style="fill:#50C878"></polygon><polygon points="59.76 331.61 59.76 405.78 124 442.87 124 368.67 59.76 331.61" style="opacity:0.2"></polygon><polygon points="314.22 333.04 124 442.87 124 368.67 314.22 258.84 314.22 333.04" style="fill:#fafafa"></polygon><polygon points="136.68 435.55 124 442.87 124 368.67 136.68 361.35 136.68 435.55" style="fill:#50C878"></polygon><polygon points="162.04 420.9 149.36 428.23 149.36 354.02 162.04 346.7 162.04 420.9" style="fill:#50C878"></polygon><polygon points="187.41 406.26 174.72 413.58 174.72 339.38 187.41 332.06 187.41 406.26" style="fill:#50C878"></polygon><polygon points="212.77 391.62 200.09 398.94 200.09 324.74 212.77 317.42 212.77 391.62" style="fill:#50C878"></polygon><polygon points="238.13 376.97 225.45 384.3 225.45 310.1 238.13 302.77 238.13 376.97" style="fill:#50C878"></polygon><polygon points="263.49 362.33 250.81 369.65 250.81 295.45 263.49 288.13 263.49 362.33" style="fill:#50C878"></polygon><polygon points="288.86 347.69 276.18 355.01 276.18 280.81 288.86 273.49 288.86 347.69" style="fill:#50C878"></polygon><polygon points="314.22 333.04 301.54 340.37 301.54 266.17 314.22 258.84 314.22 333.04" style="fill:#50C878"></polygon><polygon points="314.22 269.47 124 379.3 124 368.67 314.22 258.84 314.22 269.47" style="opacity:0.2"></polygon><polygon points="59.76 342.21 124 379.3 124 368.67 120.68 366.75 59.76 331.61 59.76 342.21" style="opacity:0.2"></polygon><polygon points="321.75 254.5 116.47 373.01 116.47 359.42 321.75 240.9 321.75 254.5" style="fill:#37474f"></polygon><polygon points="56.29 338.29 116.47 373.01 116.47 359.42 56.29 324.69 56.29 338.29" style="fill:#263238"></polygon><polygon points="261.56 206.18 56.29 324.69 116.47 359.42 321.75 240.9 261.56 206.18" style="fill:#455a64"></polygon><polygon points="74.11 314.4 115.97 338.56 290.75 237.67 248.88 213.5 74.11 314.4" style="fill:#37474f"></polygon><polygon points="248.92 213.51 248.92 261.81 290.76 237.67 248.92 213.51" style="fill:#263238"></polygon><polygon points="248.92 213.51 68.98 317.38 68.98 167.47 248.92 63.6 248.92 213.51" style="fill:#fafafa"></polygon><path d="M207.12,173.54l-32.51,49.58-46.24-22.41c-2.79-1.35-6.45.58-9.35,4.95L69,281v36.39L248.92,213.51v-31l-32.56-14.05C213.57,167.2,210,169.2,207.12,173.54Z" style="fill:#e0e0e0"></path><path d="M216.36,168.41c-2.79-1.21-6.4.79-9.24,5.13l-13.83,21.09c3.3,2.08,6.43-.58,10.4-4.74,5.64-5.92,10.26-5.31,15.6-5.76,4.16-.35,9.36-2.83,12.39-9.11Z" style="fill:#f0f0f0"></path><path d="M104.78,242.82c4.56-4.67,8.77-11.63,13.51-14.23,3.38-1.85,6.51-1.16,9.67-1.13a11.32,11.32,0,0,0,9.83-5c1.71-2.31,3-5.45,4.83-7.51,2.35-2.7,4.93-3,7.41-3.77l-21.66-10.5c-2.79-1.35-6.45.58-9.35,4.95L90.14,249.14C94.63,250,100,247.75,104.78,242.82Z" style="fill:#f0f0f0"></path><polygon points="174.6 223.12 190.4 229.13 179.36 215.88 174.6 223.12" style="opacity:0.05"></polygon><path id="freepik--Cloud--inject-173" d="M193.14,174.26a3.63,3.63,0,0,0-1.66.49c-.53.24-.7.18-.81.06-1.3-2.12-3.46-1-4.75.58-.31-1.8-1.87-2.62-3.58-1a3.37,3.37,0,0,0-4-3.66,6.45,6.45,0,0,0-4.48,4.1c-1.13-2.72-5.52-1.13-7.9,2a15.92,15.92,0,0,0-3.1,5.79,14.77,14.77,0,0,0-.52,4.14c-.92-.72-2.78,0-4,1.46a7,7,0,0,0-1.5,4.79,4.78,4.78,0,0,0-2.44,1.34,4.11,4.11,0,0,0-1.21,2.92c-.66.33-2.25,2.07-2.07,3.05s2-.07,2.7-.5a18.51,18.51,0,0,0,1.89-1.55,2.08,2.08,0,0,0,1-.28,3.9,3.9,0,0,0,1.82-2.49c.57,1.5,2.57,1.73,4,1.47,2.67-.49,6.45-3.31,8.09-7.32a2.2,2.2,0,0,0,.79,1,2.49,2.49,0,0,0,2.47.11c1.09-.47,4-2,4.86-5.11.59,1.44,3.2.74,5.19-.84a13.72,13.72,0,0,0,2.23-2.32c.53-.69.82-1.23,1.28-1.92s.57-.69,1.1-.75a6.48,6.48,0,0,0,4.34-2.51C194,176,194.18,174.39,193.14,174.26Z" style="fill:#f0f0f0"></path><polygon points="68.98 317.38 110.82 341.54 110.82 191.63 68.98 167.47 68.98 317.38" style="fill:#50C878"></polygon><polygon points="248.92 213.51 290.76 237.67 290.76 87.76 248.92 63.6 248.92 213.51" style="fill:#50C878"></polygon><polygon points="248.92 213.51 290.76 237.67 290.76 87.76 248.92 63.6 248.92 213.51" style="opacity:0.2"></polygon><polygon points="68.98 167.47 110.82 191.63 290.75 87.76 248.92 63.6 68.98 167.47" style="fill:#50C878"></polygon><polygon points="68.98 167.47 110.82 191.63 290.75 87.76 248.92 63.6 68.98 167.47" style="fill:#fff;opacity:0.30000000000000004"></polygon><path d="M170.93,151c-.89,51.53-21,106.4-42.67,134v10.24l6.66,32.45L116,338.56V182.69Z" style="fill:#50C878"></path><path d="M170.93,151c-.89,51.53-21,106.4-42.67,134v10.24l6.66,32.45L116,338.56V182.69Z" style="fill:#fff;opacity:0.30000000000000004"></path><path d="M156.47,189.22c-.78,5.93-1.79,12-3.09,18-1.27,5.91-2.84,11.87-4.67,17.79s-3.92,11.8-6.27,17.59-4.93,11.48-7.74,17c-1.4,2.74-2.83,5.44-4.33,8.1s-3.19,5.59-4.83,8.34c-.4.68-.8,1.37-1.21,2.05-.07.12,0,.38.08.23,1.84-2.62,3.57-5.31,5.23-8.15s3.11-5.47,4.57-8.27c2.9-5.54,5.57-11.26,8-17.07s4.61-11.76,6.53-17.72,3.57-12,4.91-18c.67-3,1.25-6,1.76-8.94.25-1.43.45-2.85.66-4.26s.43-2.94.56-4.37c.08-.77.14-1.54.21-2.32,0-.27-.32-.36-.36,0Z" style="fill:#50C878"></path><path d="M142,198.17c-.36,4.44-.6,8.81-1.18,13.34s-1.37,9-2.36,13.62a179.9,179.9,0,0,1-8.31,27.27c-1,2.55-2.07,5.1-3.17,7.61s-2.17,5-3.35,7.47c0,0,0,.13,0,.07,1.18-2.22,2.38-4.45,3.45-6.74s2-4.49,2.94-6.76c1.83-4.51,3.48-9.08,4.93-13.67A166,166,0,0,0,141.2,213c.35-2.48.63-5,.82-7.39a65.23,65.23,0,0,0,.28-7.45c0-.2-.27-.31-.3,0Z" style="fill:#50C878"></path><path d="M126.39,212.55c.18,1.5.24,3.1.36,4.64s.19,3.13.24,4.72c.1,3.12,0,6.32-.15,9.59a128.9,128.9,0,0,1-3,20.49c-.85,3.84-1.82,7.72-2.91,11.56,0,.11,0,.29.11.11a107.74,107.74,0,0,0,3.14-10.77c.8-3.48,1.47-6.95,2-10.37a115.66,115.66,0,0,0,1.37-19.84c0-1.77-.13-3.5-.27-5.2-.08-.87-.17-1.73-.28-2.57s-.3-1.66-.43-2.5c0-.21-.25-.11-.22.14Z" style="fill:#50C878"></path><path d="M124.86,302.74a40.82,40.82,0,0,0,.45,4.54c.18,1.52.37,3,.54,4.56q.53,4.57.91,9.24c.08.87.15,1.74.22,2.62,0,.4.06.81.11,1.2.06.55.2,1,.3,1.53,0,.12.22.19.23-.05a20.57,20.57,0,0,0,0-2.93c-.05-.79-.1-1.59-.16-2.38-.11-1.56-.25-3.09-.4-4.63-.29-3-.62-6-1-8.9a36.42,36.42,0,0,0-.91-4.94c0-.14-.29-.12-.29.14Z" style="fill:#50C878"></path><path d="M121,309.86c-.12,3.19-.14,6.32-.22,9.48s-.24,6.49-.17,9.61c0,.14.18.28.21,0a98.38,98.38,0,0,0,.55-9.86c.07-3.16.12-6.29,0-9.3,0-.23-.31-.29-.33.05Z" style="fill:#50C878"></path><path d="M128.26,284.92c-6.09,5.89-12.29,1.93-12.29,1.93v5.08s3.15,9,12.29,3.23C129.51,292.6,129.12,286.41,128.26,284.92Z" style="fill:#50C878"></path><path d="M127.69,204.36c5.7-3,11.05-9.09,14.84-16.46,3.39,3.56,8.44,4.23,14.09,1.32,4.54-2.35,8.83-6.69,12.29-12.07q1.07-8,1.59-15.92L138.38,177.8c.05.42.11.82.18,1.21L116,190.88v14.3C119.2,206.85,123.28,206.67,127.69,204.36Z" style="fill:#50C878;opacity:0.6000000000000001"></path><path d="M230.65,116.48c.89,50.5,21,82.12,42.67,84.69v10.24l-6.66,40.15,18.95-10.95V84.75Z" style="fill:#50C878"></path><path d="M230.65,116.48c.89,50.5,21,82.12,42.67,84.69v10.24l-6.66,40.15,18.95-10.95V84.75Z" style="fill:#fff;opacity:0.30000000000000004"></path><path d="M251.53,112l-20.72,9.62a166.78,166.78,0,0,0,2.43,22.21,17.09,17.09,0,0,0,4.39-1.39c7.05-3.27,13.68-11.08,18-20.43,3.47,3.87,8.73,4.7,14.67,1.7s11.44-9.24,15.36-16.81V93.07l-34.24,17.29C251.41,110.91,251.47,111.44,251.53,112Z" style="fill:#50C878;opacity:0.6000000000000001"></path><path d="M245.12,138a117.34,117.34,0,0,0,3.08,14.45,77.8,77.8,0,0,0,4.67,12.4,59.81,59.81,0,0,0,6.27,10.35,47.68,47.68,0,0,0,7.75,8.08,44.46,44.46,0,0,0,4.32,3.11q2.37,1.47,4.83,2.76l1.21.65c.07,0,0,.36-.08.33a23.77,23.77,0,0,1-5.23-2.11,38.64,38.64,0,0,1-4.57-3,45.21,45.21,0,0,1-8-7.85A58.71,58.71,0,0,1,252.86,167a74.23,74.23,0,0,1-4.92-12.36c-.67-2.23-1.25-4.53-1.76-6.91-.25-1.15-.45-2.32-.66-3.51s-.43-2.43-.56-3.71l-.21-2.07c0-.25.32-.74.37-.43Z" style="fill:#50C878"></path><path d="M259.58,130.28c.36,4,.6,8.12,1.18,12a82.36,82.36,0,0,0,2.37,10.89,57.84,57.84,0,0,0,8.3,17.68q1.51,2.08,3.17,3.95c1.11,1.22,2.17,2.51,3.35,3.61,0,0,0,.11,0,.09a29,29,0,0,1-3.45-2.76,35.66,35.66,0,0,1-2.94-3.37,48.4,48.4,0,0,1-4.93-8,71.26,71.26,0,0,1-6.23-20.19c-.34-2.09-.63-4.24-.82-6.45a57.05,57.05,0,0,1-.28-7.12c0-.22.27-.63.3-.33Z" style="fill:#50C878"></path><path d="M275.2,126.64c-.18,1.7-.25,3.37-.37,5s-.19,3.35-.24,5q-.13,4.83.15,9.41a75.84,75.84,0,0,0,2.95,17.09,81.51,81.51,0,0,0,2.91,8.2c0,.08-.05.34-.11.23a36.17,36.17,0,0,1-3.14-7.15,68.31,68.31,0,0,1-2-8.06A90.37,90.37,0,0,1,274,138.16c0-1.81.13-3.66.27-5.53.08-.95.17-1.91.28-2.88s.3-2,.43-3c0-.24.26-.4.23-.11Z" style="fill:#50C878"></path><path d="M276.72,215.07c0,1.61-.27,3.36-.45,5.05s-.37,3.46-.54,5.18c-.35,3.45-.65,6.89-.91,10.3-.07,1-.15,1.92-.22,2.87,0,.44-.06.88-.11,1.33-.06.62-.2,1.25-.3,1.88,0,.14-.22.43-.23.22a19.93,19.93,0,0,1,0-2.9c.05-.85.1-1.71.16-2.57.11-1.69.25-3.39.4-5.09.29-3.34.62-6.71,1-10.1.24-2,.45-4,.9-6,0-.18.29-.46.29-.19Z" style="fill:#50C878"></path><path d="M280.55,217.77c.12,3,.14,6.14.22,9.22s.24,6.2.17,9.41c0,.14-.18.48-.21.27a80.8,80.8,0,0,1-.55-9.24c-.07-3.06-.12-6.14,0-9.34,0-.24.31-.65.33-.32Z" style="fill:#50C878"></path><path d="M273.32,201.17c6.09-1.15,12.29-12.26,12.29-12.26V194s-3.15,12.67-12.29,17.42C272.07,210.29,272.46,203.65,273.32,201.17Z" style="fill:#50C878"></path><path d="M109.23,187.62c1.92,10.56,9.51,14.65,18.46,9.94s17-17,19.6-29.93Z" style="fill:#50C878"></path><path d="M109.23,187.62c1.92,10.56,9.51,14.65,18.46,9.94s17-17,19.6-29.93Z" style="opacity:0.2"></path><path d="M164,159.14c2.77,11.17,11.77,14.53,21.73,8.11S204,146.32,205.83,132.2Z" style="fill:#50C878"></path><path d="M164,159.14c2.77,11.17,11.77,14.53,21.73,8.11S204,146.32,205.83,132.2Z" style="opacity:0.2"></path><path d="M138.38,171c1.37,11.39,9,16.17,18.24,11.41s17.47-17.74,19.68-31Z" style="fill:#50C878"></path><path d="M168.06,163.42c-.68,1.12-1.41,2.15-2.15,3.21a33.08,33.08,0,0,1-2.18,2.83,28.76,28.76,0,0,1-4.61,4.36c-3.25,2.42-6.69,3.78-9.64,3.58a5.74,5.74,0,0,1-4.32-2.2c-.07-.1-.13.13-.09.2,1.72,3.13,5.25,3.15,8.59,2a24.12,24.12,0,0,0,10-7.07,31.84,31.84,0,0,0,2.49-3.24,27.08,27.08,0,0,0,2-3.65S168.09,163.36,168.06,163.42Z" style="opacity:0.2"></path><path d="M167.39,160.63a38.68,38.68,0,0,1-6.61,7.94,16.14,16.14,0,0,1-7.08,3.85,10.42,10.42,0,0,1-5-.2c-.14,0-.14.29-.07.34,4,2.4,10.31-.49,15.11-6.2a29.4,29.4,0,0,0,3.72-5.65S167.42,160.58,167.39,160.63Z" style="opacity:0.2"></path><path d="M218.44,121.47c.67,13.45,8.83,19.84,19.19,15s19.81-19.38,22.21-34.26Z" style="fill:#50C878"></path><path d="M218.44,121.47c.67,13.45,8.83,19.84,19.19,15s19.81-19.38,22.21-34.26Z" style="opacity:0.2"></path><path d="M250.33,113.72a31.63,31.63,0,0,1-4,6,18.76,18.76,0,0,1-5,4.16c-3,1.67-6.07,2.73-8.72,2.44a6.33,6.33,0,0,1-2-.54,6.41,6.41,0,0,1-1.81-1.18c0-.06-.09.12-.06.17a4.61,4.61,0,0,0,1.43,1.51,5.3,5.3,0,0,0,1.83.67,10.45,10.45,0,0,0,4.26-.31,19.88,19.88,0,0,0,10-6.09,24.11,24.11,0,0,0,4.23-6.67C250.65,113.69,250.46,113.48,250.33,113.72Z" style="opacity:0.2"></path><path d="M250.06,118.87a62.56,62.56,0,0,1-4,5.4,25.47,25.47,0,0,1-4.44,4c-2.95,2.06-6,2.84-8.52,2.34a9.33,9.33,0,0,1-2-.64,8.9,8.9,0,0,1-1.23-.71,6.37,6.37,0,0,0-.88-.58s0,.06,0,.07a4.49,4.49,0,0,0,1.56,1.59,6.55,6.55,0,0,0,1.83.87,8.56,8.56,0,0,0,4.22.08c3-.65,6.23-2.74,9.13-5.88a25.05,25.05,0,0,0,4.49-6.41C250.23,118.92,250.15,118.74,250.06,118.87Z" style="opacity:0.2"></path><path d="M193.82,138.05c.68,12.86,8.87,18.49,18.84,12.94s18.39-20.41,19.39-34.21Z" style="fill:#50C878"></path><path d="M251.37,104.51c.94,12.63,9,18.27,18.88,13.26S289,98.61,291,84.49Z" style="fill:#50C878"></path><path d="M145.38,179.46a6.83,6.83,0,0,1-2.85,5.44c-1.57.9-2.84-.06-2.84-2.15a6.78,6.78,0,0,1,2.84-5.43C144.1,176.41,145.38,177.37,145.38,179.46Z" style="fill:#f5f5f5"></path><path d="M172.6,166.92a6.82,6.82,0,0,1-2.84,5.44c-1.57.9-2.84-.06-2.84-2.15a6.78,6.78,0,0,1,2.84-5.43C171.33,163.87,172.6,164.83,172.6,166.92Z" style="fill:#f5f5f5"></path><path d="M202.26,148a6.81,6.81,0,0,1-2.85,5.43c-1.57.91-2.84-.05-2.84-2.15a6.81,6.81,0,0,1,2.84-5.43C201,145,202.26,145.92,202.26,148Z" style="fill:#f5f5f5"></path><path d="M229.07,133.27a6.78,6.78,0,0,1-2.84,5.43c-1.57.91-2.85,0-2.85-2.15a6.82,6.82,0,0,1,2.85-5.43C227.8,130.22,229.07,131.18,229.07,133.27Z" style="fill:#f5f5f5"></path><path d="M258.47,113.56a6.81,6.81,0,0,1-2.84,5.43c-1.57.91-2.85-.06-2.85-2.15a6.82,6.82,0,0,1,2.85-5.43C257.2,110.51,258.47,111.47,258.47,113.56Z" style="fill:#f5f5f5"></path><path d="M139.27,178.91a37.76,37.76,0,0,1-7.86,10.37c-2.9,2.52-5.93,3.86-8.68,4a7.7,7.7,0,0,1-4.55-1.14c-.09-.05-.12.2-.06.25,2.27,1.67,5.18,2,8.35.71a22.89,22.89,0,0,0,9-7.36,32,32,0,0,0,3.94-6.63C139.47,179,139.36,178.76,139.27,178.91Zm-12.19,9.69a16.62,16.62,0,0,0,6.39-5.19,25.06,25.06,0,0,0,3-4.91c0-.06,0-.2-.05-.11a27.43,27.43,0,0,1-5.76,7.25,10.83,10.83,0,0,1-6.17,2.88,9.46,9.46,0,0,1-3.29-.53c-.15-.05-.21.26-.11.35C122.56,189.67,124.93,189.47,127.08,188.6Z" style="opacity:0.2"></path><path d="M194.22,154.11c-.6.57-1.16,1.34-1.73,2s-1.19,1.29-1.8,1.89a25.67,25.67,0,0,1-3.77,3.1,15.86,15.86,0,0,1-7.47,2.82,9.32,9.32,0,0,1-1.91,0,14.38,14.38,0,0,0-2.08-.38s0,0,0,0a4.71,4.71,0,0,0,3.26,1,11,11,0,0,0,3.71-.55,21.42,21.42,0,0,0,7.82-4.82,27,27,0,0,0,2.16-2.23,13.28,13.28,0,0,0,1.91-2.58C194.38,154.22,194.32,154,194.22,154.11Z" style="opacity:0.2"></path><path d="M193.57,151c-.58.63-1.13,1.35-1.71,2s-1.22,1.31-1.85,1.9a22.47,22.47,0,0,1-3.73,2.84,11.79,11.79,0,0,1-6.8,1.81,7.58,7.58,0,0,1-3.61-1.15s0,0,0,0a7.52,7.52,0,0,0,6.28,1.57,16.15,16.15,0,0,0,7.55-4.13,24.21,24.21,0,0,0,2-2,16.15,16.15,0,0,0,2-2.6C193.81,151.09,193.68,150.88,193.57,151Z" style="opacity:0.2"></path><path d="M222.73,131.41a64.2,64.2,0,0,1-4.12,5.42,30.18,30.18,0,0,1-4.27,4c-3.08,2.35-6.45,3.76-9.23,3.43a5.19,5.19,0,0,1-2-.64,8.25,8.25,0,0,1-1.6-1.43c-.08-.09-.17.14-.13.24a4.14,4.14,0,0,0,3.1,2.33,8.54,8.54,0,0,0,4.22-.26c3.16-.91,6.57-3.29,9.58-6.59a28.1,28.1,0,0,0,4.5-6.36C222.85,131.49,222.8,131.31,222.73,131.41Z" style="opacity:0.2"></path><path d="M220.66,138.82a45.43,45.43,0,0,1-3.39,3.93,22,22,0,0,1-3.56,2.88,12.46,12.46,0,0,1-7.57,2.23s-.06.15,0,.16c3.39,1,7.77-1.13,11.57-5a21.06,21.06,0,0,0,3.14-4C220.92,138.9,220.78,138.68,220.66,138.82Z" style="opacity:0.2"></path><path d="M280.84,101.37a53.26,53.26,0,0,1-4.25,5,22.88,22.88,0,0,1-4.46,3.49c-2.94,1.7-5.86,2.22-8.32,1.51a9.24,9.24,0,0,1-3.82-2.36c-.07-.08-.11.17-.07.23a7.59,7.59,0,0,0,7.18,3c3-.3,6.2-2,9.24-4.9a30.83,30.83,0,0,0,2.4-2.54,20.1,20.1,0,0,0,2.3-3.25C281.17,101.41,281,101.17,280.84,101.37Z" style="opacity:0.2"></path><path d="M280.64,97c-1.08,1.22-2.16,2.48-3.29,3.58a27.26,27.26,0,0,1-3.17,2.66,14.76,14.76,0,0,1-6.18,2.83,4.05,4.05,0,0,1-2.85-.64c-.12-.08-.16.2-.09.28,1.14,1.41,3.2,1.12,5,.46a21.24,21.24,0,0,0,7.05-4.61,23.9,23.9,0,0,0,3.71-4.26C281,97.13,280.79,96.88,280.64,97Z" style="opacity:0.2"></path><polygon points="285.61 240.61 295.9 246.55 295.9 65.38 285.61 59.44 285.61 240.61" style="fill:#263238"></polygon><polygon points="306.19 240.61 295.9 246.55 295.9 65.38 306.19 59.44 306.19 240.61" style="fill:#37474f"></polygon><polygon points="295.9 53.5 285.61 59.44 295.9 65.38 306.19 59.44 295.9 53.5" style="fill:#455a64"></polygon><g id="freepik--Cranberry--inject-173"><path d="M296.88,40.51a10.26,10.26,0,0,0-3,.16,14.42,14.42,0,0,0-2.34.8,10.12,10.12,0,1,0,5.38-1Z" style="fill:#50C878"></path><path d="M299.43,57.38c1.94-1.08,1.07-3.34-2.08-4.2s-6.55-.09-5.52,2.89c-4.27-2.26-5.37-10.29-1.39-14A10.11,10.11,0,1,0,305.77,52.8,7.1,7.1,0,0,1,299.43,57.38Z" style="opacity:0.15"></path><path d="M304.39,50.37a1.93,1.93,0,0,1-1.73,1.29c-1.15,0-1.83-1.24-2.46-2.2a12.75,12.75,0,0,0-7.2-4.85,3.38,3.38,0,0,1-1-.42,1,1,0,0,1-.43-.95,1.65,1.65,0,0,1,.65-.9,6.27,6.27,0,0,1,2.39-.73,10.14,10.14,0,0,1,6.14,1.58,8.16,8.16,0,0,1,3.7,4.92A3.78,3.78,0,0,1,304.39,50.37Z" style="fill:#fff;opacity:0.2"></path><path d="M301.18,49.1a2.61,2.61,0,0,0,.66,1.09,1.47,1.47,0,0,0,.67.39c2.62.64,1.19-5.61-.79-4.12a1.81,1.81,0,0,0-.61,1.07A3,3,0,0,0,301.18,49.1Z" style="fill:#fff;opacity:0.2"></path></g><path d="M285.61,67.38l-1.48.85c-15.3,7.89-32.75,2.79-46.45,4.3a27,27,0,0,0-19.23,12l-3.22-1.87c-3.56-2.06-9-1.55-15.12,2a42.92,42.92,0,0,0-17.85,21.25c-3.92-1.75-10.85.72-19.73,10-13.7,14.29-31.15,39.54-46.45,49.32l-1.48.86v7.8l5.15-3v5.95l171-98.73v-7.8Z" style="fill:#455a64"></path><path d="M289.28,71.21C274,79.1,256.52,74,242.83,75.52A27.08,27.08,0,0,0,223.1,88.3c-3-4.72-9.84-5.27-17.85-.64a43,43,0,0,0-17.85,21.25c-3.92-1.75-10.85.73-19.73,10-13.69,14.3-31.14,39.55-46.45,49.33l-1.47.85v7.8l171-98.73v-7.8Z" style="fill:#37474f"></path><path d="M287.06,75.57a49.73,49.73,0,0,1-19.61,6.21c-6.31.6-12.32.07-18.36-.3a62.47,62.47,0,0,0-9.1-.21,13.22,13.22,0,0,0-8.69,4.08,17.07,17.07,0,0,0-4.92,9.8,8,8,0,0,0,.48,4.13,2.9,2.9,0,0,0,2.59,1.82,5.74,5.74,0,0,0,3.93-1.71A9.86,9.86,0,0,0,236.47,94c.39-1.91,0-3.53-1.11-3.88s-2.38.28-3.18,2.06A2.52,2.52,0,0,0,232,94c.06.17.3,0,.23-.18a2.63,2.63,0,0,1,.68-2.07,2.13,2.13,0,0,1,1.9-1c1.11.17,1.56,1.73,1.08,3.56a10.5,10.5,0,0,1-1.41,3,6.38,6.38,0,0,1-4.43,2.87c-.94.07-2.58-.24-2.9-3.3a10,10,0,0,1,0-2.31,14.34,14.34,0,0,1,.34-1.76,15.49,15.49,0,0,1,5.69-8.17,13.17,13.17,0,0,1,8.39-2.33c2.86,0,5.67.22,8.48.41A104.13,104.13,0,0,0,267,83a49.39,49.39,0,0,0,8.72-1.59,40.58,40.58,0,0,0,9.05-3.67c.79-.44,1.57-.91,2.36-1.42C287.6,76,287.45,75.35,287.06,75.57Z" style="fill:#455a64"></path><path d="M123.44,170a95.29,95.29,0,0,0,19.61-16.42c6.31-6.69,12.32-14.16,18.36-21.51,3-3.64,6-7.37,9.1-10.72,2.77-3,5.81-5.52,8.69-6,2.45-.37,4.52.85,4.92,4.13a11.49,11.49,0,0,1-.48,4.69,13.86,13.86,0,0,1-2.59,4.81,8.23,8.23,0,0,1-3.93,2.82,2.29,2.29,0,0,1-3.09-1.79,6.83,6.83,0,0,1,1.12-5.17c.95-1.41,2.37-2.46,3.17-1.61a1.66,1.66,0,0,1,.22,1.57c-.06.24-.3.39-.23.09.19-.84-.22-1.23-.68-1.29s-1.3.38-1.89,1.16a5.61,5.61,0,0,0-1.09,4.82,2.34,2.34,0,0,0,1.41,1.37c1.25.38,3.07-.77,4.43-2.23a11.39,11.39,0,0,0,2.91-6.66,9.89,9.89,0,0,0-.05-2.26,6.76,6.76,0,0,0-.34-1.36c-.95-2.44-3.38-2.61-5.69-1.61-2.91,1.27-5.76,4.3-8.39,7.36-2.86,3.32-5.67,6.77-8.48,10.2-5.57,6.8-11.14,13.65-17,19.82-2.85,3-5.76,5.89-8.72,8.48a62,62,0,0,1-9,6.78c-.78.47-1.57.91-2.36,1.31C122.9,171.07,123.05,170.27,123.44,170Z" style="fill:#455a64"></path><path d="M205.68,93.82l2.25,4.8,5-1.94c.39-.15.54.4.26.93l-3.65,6.85.86,6.2c.07.48-.34,1.11-.69,1.07l-4.51-.56-4.51,5.77c-.35.45-.76.29-.69-.27l.86-7.2-3.65-2.63c-.28-.21-.13-.94.26-1.24l5-3.89,2.25-7.4C205,93.74,205.5,93.45,205.68,93.82Z" style="fill:#50C878"></path><path d="M190.43,120.31l2,.7,2.31-2.5c.18-.2.36-.08.3.2l-.7,3.56,1.55,1.68c.12.12,0,.48-.18.6l-2.47,1.5-1.35,3.54c-.1.27-.35.38-.41.17l-.82-2.63-2.39.51c-.18,0-.23-.25-.08-.49l2-3.14-.12-3.22C190.06,120.54,190.27,120.26,190.43,120.31Z" style="fill:#50C878"></path><path d="M220.07,103.2l-2,3-2.31.16c-.18,0-.36.33-.3.55l.7,2.75-1.55,3.46c-.12.27,0,.5.18.4l2.47-1.35,1.35,2c.11.15.35,0,.41-.3l.82-3.59,2.39-2.24c.18-.17.23-.52.08-.58l-2-.87.12-3.36C220.44,103,220.23,103,220.07,103.2Z" style="fill:#50C878"></path><polygon points="290.75 87.73 121.12 185.68 121.12 176.1 290.75 78.16 290.75 87.73" style="fill:#50C878"></polygon><polygon points="290.75 87.73 121.12 185.68 121.12 176.1 290.75 78.16 290.75 87.73" style="fill:#fff;opacity:0.30000000000000004"></polygon><path d="M127.29,177.32a3.59,3.59,0,0,1-1.5,2.87c-.83.48-1.5,0-1.5-1.13a3.61,3.61,0,0,1,1.5-2.88C126.62,175.71,127.29,176.21,127.29,177.32Z" style="fill:#fff"></path><path d="M135.73,172.45a3.59,3.59,0,0,1-1.5,2.87c-.83.48-1.51,0-1.51-1.13a3.62,3.62,0,0,1,1.51-2.88C135.06,170.83,135.73,171.34,135.73,172.45Z" style="fill:#fff"></path><path d="M144.17,167.58a3.6,3.6,0,0,1-1.51,2.87c-.83.48-1.5,0-1.5-1.13a3.61,3.61,0,0,1,1.5-2.88C143.49,166,144.17,166.47,144.17,167.58Z" style="fill:#fff"></path><path d="M152.6,162.71a3.59,3.59,0,0,1-1.5,2.87c-.83.48-1.5,0-1.5-1.13a3.61,3.61,0,0,1,1.5-2.88C151.93,161.09,152.6,161.6,152.6,162.71Z" style="fill:#fff"></path><path d="M161,157.84a3.59,3.59,0,0,1-1.5,2.87c-.83.48-1.51,0-1.51-1.14a3.61,3.61,0,0,1,1.51-2.87C160.37,156.22,161,156.73,161,157.84Z" style="fill:#fff"></path><path d="M169.48,153a3.61,3.61,0,0,1-1.51,2.87c-.83.48-1.5,0-1.5-1.14a3.61,3.61,0,0,1,1.5-2.87C168.8,151.35,169.48,151.86,169.48,153Z" style="fill:#fff"></path><path d="M177.91,148.1a3.61,3.61,0,0,1-1.5,2.87c-.83.48-1.51,0-1.51-1.14a3.61,3.61,0,0,1,1.51-2.87C177.24,146.48,177.91,147,177.91,148.1Z" style="fill:#fff"></path><path d="M186.35,143.23a3.59,3.59,0,0,1-1.51,2.87c-.83.48-1.5,0-1.5-1.14a3.61,3.61,0,0,1,1.5-2.87C185.68,141.61,186.35,142.12,186.35,143.23Z" style="fill:#fff"></path><path d="M194.78,138.36a3.61,3.61,0,0,1-1.5,2.87c-.83.48-1.5,0-1.5-1.14a3.59,3.59,0,0,1,1.5-2.87C194.11,136.74,194.78,137.25,194.78,138.36Z" style="fill:#fff"></path><path d="M203.22,133.48a3.61,3.61,0,0,1-1.5,2.88c-.83.48-1.51,0-1.51-1.14a3.6,3.6,0,0,1,1.51-2.87C202.55,131.87,203.22,132.38,203.22,133.48Z" style="fill:#fff"></path><path d="M211.66,128.61a3.62,3.62,0,0,1-1.51,2.88c-.83.48-1.5,0-1.5-1.14a3.59,3.59,0,0,1,1.5-2.87C211,127,211.66,127.51,211.66,128.61Z" style="fill:#fff"></path><path d="M220.09,123.74a3.61,3.61,0,0,1-1.5,2.88c-.83.48-1.5,0-1.5-1.14a3.59,3.59,0,0,1,1.5-2.87C219.42,122.13,220.09,122.64,220.09,123.74Z" style="fill:#fff"></path><path d="M228.53,118.87a3.61,3.61,0,0,1-1.5,2.88c-.83.48-1.51,0-1.51-1.14a3.6,3.6,0,0,1,1.51-2.87C227.86,117.26,228.53,117.77,228.53,118.87Z" style="fill:#fff"></path><path d="M237,114a3.62,3.62,0,0,1-1.51,2.88c-.83.47-1.5,0-1.5-1.14a3.58,3.58,0,0,1,1.5-2.87C236.29,112.39,237,112.89,237,114Z" style="fill:#fff"></path><path d="M245.4,109.13a3.59,3.59,0,0,1-1.5,2.87c-.83.48-1.5,0-1.5-1.13a3.61,3.61,0,0,1,1.5-2.88C244.73,107.52,245.4,108,245.4,109.13Z" style="fill:#fff"></path><path d="M253.84,104.26a3.59,3.59,0,0,1-1.5,2.87c-.84.48-1.51,0-1.51-1.13a3.59,3.59,0,0,1,1.51-2.88C253.17,102.64,253.84,103.15,253.84,104.26Z" style="fill:#fff"></path><path d="M262.28,99.39a3.6,3.6,0,0,1-1.51,2.87c-.83.48-1.5,0-1.5-1.13a3.61,3.61,0,0,1,1.5-2.88C261.6,97.77,262.28,98.28,262.28,99.39Z" style="fill:#fff"></path><path d="M270.71,94.52a3.59,3.59,0,0,1-1.5,2.87c-.83.48-1.51,0-1.51-1.13a3.62,3.62,0,0,1,1.51-2.88C270,92.9,270.71,93.41,270.71,94.52Z" style="fill:#fff"></path><path d="M279.15,89.65a3.6,3.6,0,0,1-1.51,2.87c-.83.48-1.5,0-1.5-1.14a3.61,3.61,0,0,1,1.5-2.87C278.47,88,279.15,88.54,279.15,89.65Z" style="fill:#fff"></path><path d="M287.58,84.78a3.59,3.59,0,0,1-1.5,2.87c-.83.48-1.5,0-1.5-1.14a3.61,3.61,0,0,1,1.5-2.87C286.91,83.16,287.58,83.67,287.58,84.78Z" style="fill:#fff"></path><polygon points="126.26 344.5 115.97 350.44 115.97 169.26 126.26 163.32 126.26 344.5" style="fill:#37474f"></polygon><polygon points="105.68 344.5 115.97 350.44 115.97 169.26 105.68 163.32 105.68 344.5" style="fill:#263238"></polygon><polygon points="115.97 157.38 105.68 163.32 115.97 169.26 126.26 163.32 115.97 157.38" style="fill:#455a64"></polygon><g id="freepik--cranberry--inject-173"><path d="M117,144.32a10.26,10.26,0,0,0-3,.16,15.45,15.45,0,0,0-2.34.8,10.12,10.12,0,1,0,5.38-1Z" style="fill:#50C878"></path><path d="M119.5,161.19c1.94-1.08,1.07-3.34-2.08-4.2s-6.55-.09-5.52,2.89c-4.27-2.25-5.37-10.29-1.39-14a10.11,10.11,0,1,0,15.33,10.72A7.1,7.1,0,0,1,119.5,161.19Z" style="opacity:0.15"></path><path d="M124.46,154.18a1.93,1.93,0,0,1-1.73,1.29c-1.15,0-1.83-1.24-2.46-2.2a12.75,12.75,0,0,0-7.2-4.85,3.14,3.14,0,0,1-1-.42,1,1,0,0,1-.43-.95,1.65,1.65,0,0,1,.65-.9,6.27,6.27,0,0,1,2.39-.73A10.28,10.28,0,0,1,120.8,147a8.16,8.16,0,0,1,3.7,4.92A3.78,3.78,0,0,1,124.46,154.18Z" style="fill:#fff;opacity:0.2"></path><path d="M121.25,152.91a2.61,2.61,0,0,0,.66,1.09,1.58,1.58,0,0,0,.67.4c2.62.63,1.19-5.62-.79-4.13a1.81,1.81,0,0,0-.61,1.07A3,3,0,0,0,121.25,152.91Z" style="fill:#fff;opacity:0.2"></path></g></g><g id="freepik--Puppet--inject-173"><polygon points="221.01 245.3 222.29 277.19 246.38 263.28 242.97 241.5 221.01 245.3" style="fill:#ffbda7"></polygon><path d="M219.44,213.88a21.54,21.54,0,0,1,1.44,5.19,9.39,9.39,0,0,1-.83,6c-.41.68-1.49,2-2.39,2-.57,0-1.49-.79-2-1.09l-2.15-1.26a62.36,62.36,0,0,1-10.65-7.3,17,17,0,0,1-3.85-4.77,9.21,9.21,0,0,1-1-6,2.79,2.79,0,0,1,.88-1.68,2.33,2.33,0,0,1,2.37-.11,7.81,7.81,0,0,1,2,1.52,21.69,21.69,0,0,0,7.14,4.94,18.22,18.22,0,0,0,7.77.77.56.56,0,0,1,.7.46C219.07,213,219.26,213.43,219.44,213.88Z" style="fill:#50C878"></path><path d="M219.44,213.88a21.54,21.54,0,0,1,1.44,5.19,9.39,9.39,0,0,1-.83,6c-.41.68-1.49,2-2.39,2-.57,0-1.49-.79-2-1.09l-2.15-1.26a62.36,62.36,0,0,1-10.65-7.3,17,17,0,0,1-3.85-4.77,9.21,9.21,0,0,1-1-6,2.79,2.79,0,0,1,.88-1.68,2.33,2.33,0,0,1,2.37-.11,7.81,7.81,0,0,1,2,1.52,21.69,21.69,0,0,0,7.14,4.94,18.22,18.22,0,0,0,7.77.77.56.56,0,0,1,.7.46C219.07,213,219.26,213.43,219.44,213.88Z" style="opacity:0.2"></path><path d="M198.92,205a2.33,2.33,0,0,1,2.37-.11,7.81,7.81,0,0,1,2,1.52c.79.76,1.59,1.48,2.42,2.14a5.67,5.67,0,0,1-2,4.35,5.19,5.19,0,0,1-3.9,1,12.59,12.59,0,0,1-.75-1.28,9.21,9.21,0,0,1-1-6A2.79,2.79,0,0,1,198.92,205Z" style="fill:#ffa8a7"></path><path d="M234.79,208.58c8.29,11.07,13.84,26.42,18.13,39.27a2,2,0,0,1,.15,1.19,8.68,8.68,0,0,1-1,1.62,30.28,30.28,0,0,1-18.39,10.08c-7.34,1.2-15.3-.79-20.71-5.89a5.56,5.56,0,0,1-1.34-1.68,3.65,3.65,0,0,1-.42-2.38c3.19-12.13,7.13-24.68,4.81-39.61C221.87,209.4,234.77,208.56,234.79,208.58Z" style="fill:#50C878"></path><path d="M250.4,240.51a6.69,6.69,0,0,1-.08.89,8.63,8.63,0,0,1-1.51,3.8c-1.37,1.88-4.31,3.26-6.13,1.12-.43-.51-1.44-.29-1.38.46a4.8,4.8,0,0,1-3.56,5,4.66,4.66,0,0,1-5.14-2.86.81.81,0,0,0-1.48.1,4.66,4.66,0,0,1-5.38,3,6.49,6.49,0,0,1-4.55-5.05.82.82,0,0,0-1.47-.24,5.12,5.12,0,0,1-5.88,2.2,4.64,4.64,0,0,1-1.84-1.22l-.39,1.48a5.85,5.85,0,0,0,1.91,1,6.68,6.68,0,0,0,6.62-1.67,7.69,7.69,0,0,0,5.6,4.84,6.27,6.27,0,0,0,6.22-2.66,6.35,6.35,0,0,0,6.18,2.38,6.06,6.06,0,0,0,4.6-4.91c2.19,1.2,5.1.39,6.82-1.47a9.76,9.76,0,0,0,1.88-3.19C251.1,242.5,250.76,241.51,250.4,240.51Z" style="fill:#fff;opacity:0.30000000000000004"></path><path d="M250.07,189.26a2.42,2.42,0,0,1,1.6.84,1.9,1.9,0,0,1-.25,2.2,5.72,5.72,0,0,1-1.93,1.34,8.41,8.41,0,0,1,4.16,1.28c1.18.88,1.81,2.67.94,3.86a3.6,3.6,0,0,1-1.37,1,11.25,11.25,0,0,1-3.4,1,2.18,2.18,0,0,1,1,3,4,4,0,0,1-2.87,1.89,8.36,8.36,0,0,1-4.82-.68,10.62,10.62,0,0,1-2.95-2,11.36,11.36,0,0,1-3-4.73,4.36,4.36,0,0,1-.25-2.66,5.54,5.54,0,0,1,1.55-2.4,18.48,18.48,0,0,1,4.46-2.87A11.4,11.4,0,0,1,250.07,189.26Z" style="fill:#263238"></path><path d="M216.8,187.11a10.78,10.78,0,0,0-1.84-4,6.33,6.33,0,0,0-3.61-2.38,2.57,2.57,0,0,0-1.71.14,2.28,2.28,0,0,0-1.09,1.7,6.63,6.63,0,0,0,.09,2.08,6,6,0,0,0-3.41-2.27,3.64,3.64,0,0,0-1.91,0c-3.25,1.07-1.67,5.28.13,6.86a2.63,2.63,0,0,0-2,2.42,3.79,3.79,0,0,0,1.33,3,8.49,8.49,0,0,0,4.65,1.84,11.35,11.35,0,0,0,8.38-2.62Z" style="fill:#263238"></path><circle cx="225.35" cy="199.92" r="15.9" transform="translate(-21 373.31) rotate(-76.72)" style="fill:#ffa8a7"></circle><path d="M214.19,201.16a2.8,2.8,0,1,1-2.79-2.8A2.8,2.8,0,0,1,214.19,201.16Z" style="fill:#f28f8f"></path><path d="M234.4,206.25a2.8,2.8,0,1,1-2.79-2.8A2.79,2.79,0,0,1,234.4,206.25Z" style="fill:#f28f8f"></path><path d="M225.38,183.84A16.17,16.17,0,0,0,211,193c1.08-.49,2.16-1.05,3.27-1.46a5.38,5.38,0,0,0-1,3.1,2.75,2.75,0,0,0,1.71,2.2,3.49,3.49,0,0,0,4-2.08,11.06,11.06,0,0,0-.45,3.06,3.59,3.59,0,0,0,1.28,2.72,3.51,3.51,0,0,0,3.93-.12,8,8,0,0,0,2.57-3.25,5.43,5.43,0,0,0,.81,2.79,2.83,2.83,0,0,0,2.47,1.31c1.33-.11,2.27-1.34,2.8-2.56a10.58,10.58,0,0,0,.86-3.66,16.82,16.82,0,0,0,1.91,6.75,8.4,8.4,0,0,0,4.73,4,1.44,1.44,0,0,1,.26.06,16.42,16.42,0,0,0,1.23-5.95A16.15,16.15,0,0,0,225.38,183.84Z" style="fill:#37474f"></path><path d="M217.32,200a3.57,3.57,0,0,0-1.28-.94,3.79,3.79,0,0,0-3.44.12c-.36.25-.38.7.13.66a4.36,4.36,0,0,1,2.36.53,8.68,8.68,0,0,1,1.94,1.48c.19.19.72.75.91.32a1.73,1.73,0,0,0,0-.93A2.75,2.75,0,0,0,217.32,200Z" style="fill:#37474f"></path><path d="M226.07,202.3a3.4,3.4,0,0,1,1.57-.23,3.8,3.8,0,0,1,3,1.74c.19.39,0,.8-.43.52a4.34,4.34,0,0,0-2.33-.65,8.54,8.54,0,0,0-2.41.38c-.26.08-1,.32-.95-.15a1.7,1.7,0,0,1,.46-.81A2.69,2.69,0,0,1,226.07,202.3Z" style="fill:#37474f"></path><path d="M225,208.4a3.29,3.29,0,0,1-1,.62,4.59,4.59,0,0,1-3.61-.26c-.24-.13-.19.32-.08.42l0,0a1.3,1.3,0,0,0,.3.32,2.52,2.52,0,0,0,.83.43,4.1,4.1,0,0,0,2.22.18,2.73,2.73,0,0,0,1.79-1.48c.07-.13.38-.9.13-.95s-.38.36-.47.47Z" style="fill:#455a64"></path><path d="M232.4,198.81a3.73,3.73,0,0,0-.32-.36,3.5,3.5,0,0,0-4-.84.51.51,0,0,0-.21.2c-.18.42.54.43.77.46a8.7,8.7,0,0,1,4,2.16.42.42,0,0,0,.25.12C233.52,200.54,232.53,199,232.4,198.81Z" style="fill:#263238"></path><path d="M213.07,194.3c.15-.1.29-.18.42-.25a3.52,3.52,0,0,1,4,.47.5.5,0,0,1,.13.25c0,.46-.64.24-.88.2a8.69,8.69,0,0,0-4.51.77.45.45,0,0,1-.28,0C211.47,195.58,212.9,194.41,213.07,194.3Z" style="fill:#263238"></path><path d="M220.86,186.59c1.56,2.67,9.75,5,14.22,3.42l5.15-11.72L232,182.84l-1.09-11.12-5,10-4.83-7.86Z" style="fill:#ffbda7"></path><path d="M229.8,185.58c-.29,1.18-1.17,2-2,1.79s-1.19-1.32-.9-2.5,1.17-2,2-1.79S230.09,184.39,229.8,185.58Z" style="fill:#50C878"></path><path d="M222.12,173.77a1,1,0,1,1-1-1.05A1,1,0,0,1,222.12,173.77Z" style="fill:#50C878"></path><path d="M232,171.72a1,1,0,1,1-1-1A1,1,0,0,1,232,171.72Z" style="fill:#50C878"></path><path d="M233,186.59a1,1,0,1,1-1.05-1A1,1,0,0,1,233,186.59Z" style="fill:#50C878"></path><path d="M225.62,184.88a1,1,0,1,1-1-1A1,1,0,0,1,225.62,184.88Z" style="fill:#50C878"></path><path d="M241.27,178.33a1,1,0,0,1-2.09,0,1,1,0,1,1,2.09,0Z" style="fill:#50C878"></path><path d="M237.93,216.42a13.27,13.27,0,0,0-.32,3.54,9.38,9.38,0,0,0,1.16,4.37,7.56,7.56,0,0,0,2,2.24c.94.69,2.21,1.3,3.21.54s2.4-1.5,3.58-2.26a46.18,46.18,0,0,0,6.87-5.16,17.31,17.31,0,0,0,3.79-4.82,9.19,9.19,0,0,0,.9-6,2.75,2.75,0,0,0-.91-1.66,2.31,2.31,0,0,0-2.37-.09,7.61,7.61,0,0,0-1.94,1.55,21.61,21.61,0,0,1-7.08,5,18.21,18.21,0,0,1-7.76.88.77.77,0,0,0-.37,0,.76.76,0,0,0-.32.42A8.14,8.14,0,0,0,237.93,216.42Z" style="fill:#50C878"></path><path d="M237.93,216.42a13.27,13.27,0,0,0-.32,3.54,9.38,9.38,0,0,0,1.16,4.37,7.56,7.56,0,0,0,2,2.24c.94.69,2.21,1.3,3.21.54s2.4-1.5,3.58-2.26a46.18,46.18,0,0,0,6.87-5.16,17.31,17.31,0,0,0,3.79-4.82,9.19,9.19,0,0,0,.9-6,2.75,2.75,0,0,0-.91-1.66,2.31,2.31,0,0,0-2.37-.09,7.61,7.61,0,0,0-1.94,1.55,21.61,21.61,0,0,1-7.08,5,18.21,18.21,0,0,1-7.76.88.77.77,0,0,0-.37,0,.76.76,0,0,0-.32.42A8.14,8.14,0,0,0,237.93,216.42Z" style="opacity:0.2"></path><path d="M258.22,207.22a2.31,2.31,0,0,0-2.37-.09,7.61,7.61,0,0,0-1.94,1.55c-.78.77-1.57,1.5-2.4,2.18a5.73,5.73,0,0,0,2.07,4.32,5.15,5.15,0,0,0,3.91,1,13.68,13.68,0,0,0,.74-1.28,9.19,9.19,0,0,0,.9-6A2.75,2.75,0,0,0,258.22,207.22Z" style="fill:#ffa8a7"></path></g><g id="freepik--puppet--inject-173"><polygon points="187.4 269.99 188.84 296.49 162.89 311.47 165.28 268.86 187.4 269.99" style="fill:#ffbda7"></polygon><path d="M185.65,243.51a22.86,22.86,0,0,0-.19,5.78c.23,2.13.81,4.49,2.37,6.06.6.6,2.06,1.68,3,1.46.6-.15,1.36-1.21,1.81-1.65l1.92-1.86a66.65,66.65,0,0,0,9.29-10.3,18.4,18.4,0,0,0,2.82-5.95,9.84,9.84,0,0,0-.48-6.47,3,3,0,0,0-1.35-1.54,2.49,2.49,0,0,0-2.5.48,8.14,8.14,0,0,0-1.67,2.09,23.37,23.37,0,0,1-6.21,6.95,19.72,19.72,0,0,1-7.93,2.76.78.78,0,0,0-.37.13.82.82,0,0,0-.24.52C185.82,242.48,185.73,243,185.65,243.51Z" style="fill:#50C878"></path><path d="M185.65,243.51a22.86,22.86,0,0,0-.19,5.78c.23,2.13.81,4.49,2.37,6.06.6.6,2.06,1.68,3,1.46.6-.15,1.36-1.21,1.81-1.65l1.92-1.86a66.65,66.65,0,0,0,9.29-10.3,18.4,18.4,0,0,0,2.82-5.95,9.84,9.84,0,0,0-.48-6.47,3,3,0,0,0-1.35-1.54,2.49,2.49,0,0,0-2.5.48,8.14,8.14,0,0,0-1.67,2.09,23.37,23.37,0,0,1-6.21,6.95,19.72,19.72,0,0,1-7.93,2.76.78.78,0,0,0-.37.13.82.82,0,0,0-.24.52C185.82,242.48,185.73,243,185.65,243.51Z" style="fill:#fff;opacity:0.5"></path><path d="M204.83,229a2.49,2.49,0,0,0-2.5.48,8.14,8.14,0,0,0-1.67,2.09c-.64,1-1.29,1.94-2,2.84a6.07,6.07,0,0,0,3.2,4,5.49,5.49,0,0,0,4.32.09,11.15,11.15,0,0,0,.47-1.52,9.84,9.84,0,0,0-.48-6.47A3,3,0,0,0,204.83,229Z" style="fill:#c8856a"></path><path d="M169.27,237.24c-7.24,12.57-11.1,29.25-14,43.17a2.22,2.22,0,0,0,0,1.25,10.06,10.06,0,0,0,1.27,1.56A31.8,31.8,0,0,0,177,291.41c7.79.32,15.83-2.75,20.83-8.74a6,6,0,0,0,1.18-1.92,3.87,3.87,0,0,0,.14-2.53c-4.85-12.22-10.53-24.8-10-40.65C182.83,236.47,169.28,237.21,169.27,237.24Z" style="fill:#50C878"></path><path d="M193.38,263.15c-9.37,11.17-29.37,6.94-33.9-.69-1.66,6.13-3,12.27-4.16,18a2.22,2.22,0,0,0,0,1.25,10.06,10.06,0,0,0,1.27,1.56A31.8,31.8,0,0,0,177,291.41c7.79.32,15.83-2.75,20.83-8.74a6,6,0,0,0,1.18-1.92,3.87,3.87,0,0,0,.14-2.53C197.21,273.32,195.14,268.35,193.38,263.15Z" style="opacity:0.2"></path><path d="M193.38,263.15c-9.37,11.17-29.37,6.94-33.9-.69-1.66,6.13-3,12.27-4.16,18a2.22,2.22,0,0,0,0,1.25,10.06,10.06,0,0,0,1.27,1.56A31.8,31.8,0,0,0,177,291.41c7.79.32,15.83-2.75,20.83-8.74a6,6,0,0,0,1.18-1.92,3.87,3.87,0,0,0,.14-2.53C197.21,273.32,195.14,268.35,193.38,263.15Z" style="opacity:0.01"></path><circle cx="178.01" cy="227.03" r="16.68" transform="translate(-77.25 361.45) rotate(-79.67)" style="fill:#c8856a"></circle><path d="M189.78,226.92a2.93,2.93,0,1,0,2.56-3.27A2.93,2.93,0,0,0,189.78,226.92Z" style="fill:#af6152"></path><path d="M169.37,234.76a2.93,2.93,0,1,0,2.56-3.27A2.94,2.94,0,0,0,169.37,234.76Z" style="fill:#af6152"></path><path d="M175.93,210.16c1.53-.31,3.09-.54,4.61-.79a8.76,8.76,0,0,0,4.59-1.93c.56-.52,1.07-1.21,1.83-1.33a2,2,0,0,1,2,1.7,5.65,5.65,0,0,1-.44,2.85,3.46,3.46,0,0,1,4.15,5.13,3.11,3.11,0,0,1-3.77,1.15,3.18,3.18,0,0,1-.83,3.39,3.89,3.89,0,0,1-2.69.91,8.19,8.19,0,0,1-2.84-.63,3.68,3.68,0,0,1-1.22,3.53,3.42,3.42,0,0,1-2.58.48,8.59,8.59,0,0,1-2.5-1,2.69,2.69,0,0,1-1.75,2.43,3.8,3.8,0,0,1-3.07-.27,7.19,7.19,0,0,1-2.5-2.18,14.66,14.66,0,0,1-.08,3.3,14.17,14.17,0,0,1-.91,3.27,8.86,8.86,0,0,1-4.43,4.74c-.05,0-.31.09-.26.09a17.34,17.34,0,0,1-2-6,17.08,17.08,0,0,1,10.23-17.52A24.45,24.45,0,0,1,175.93,210.16Z" style="fill:#37474f"></path><path d="M186.38,226.09a3.57,3.57,0,0,1,1.21-1.14,4,4,0,0,1,3.6-.3c.41.21.48.68-.05.7a4.5,4.5,0,0,0-2.39.85,8.67,8.67,0,0,0-1.84,1.79c-.17.22-.65.86-.91.44a1.77,1.77,0,0,1-.08-1A2.9,2.9,0,0,1,186.38,226.09Z" style="fill:#37474f"></path><path d="M177.55,229.6a3.46,3.46,0,0,0-1.66,0,4,4,0,0,0-2.88,2.19c-.16.42.1.82.51.48a4.47,4.47,0,0,1,2.34-1,8.79,8.79,0,0,1,2.56.1c.28,0,1.07.2,1-.29a2,2,0,0,0-.59-.78A2.79,2.79,0,0,0,177.55,229.6Z" style="fill:#37474f"></path><path d="M179.42,235.82a3.37,3.37,0,0,0,1.08.52,4.74,4.74,0,0,0,3.72-.73c.23-.15.24.32.13.43l0,.06a1.54,1.54,0,0,1-.27.36,2.67,2.67,0,0,1-.81.56,4.35,4.35,0,0,1-2.29.46,2.87,2.87,0,0,1-2.06-1.32c-.08-.12-.51-.88-.24-1s.43.32.54.43Z" style="fill:#37474f"></path><path d="M170.52,226.76a4.43,4.43,0,0,1,.29-.42,3.69,3.69,0,0,1,4-1.37.48.48,0,0,1,.24.18c.24.42-.5.51-.74.58a9.11,9.11,0,0,0-3.93,2.75.4.4,0,0,1-.25.16C169.58,228.7,170.41,227,170.52,226.76Z" style="fill:#263238"></path><path d="M190.08,219.63a3.94,3.94,0,0,0-4.62.79.52.52,0,0,0-.11.28c0,.49.7.17.94.1a9.11,9.11,0,0,1,4.8.23.41.41,0,0,0,.29,0C191.91,220.76,190.27,219.73,190.08,219.63Z" style="fill:#263238"></path><path d="M167,245.8a14.36,14.36,0,0,1,.78,3.63,9.69,9.69,0,0,1-.67,4.71,7.92,7.92,0,0,1-1.81,2.59c-.88.83-2.13,1.62-3.27,1s-2.69-1.27-4-1.9a49.72,49.72,0,0,1-7.81-4.52,18,18,0,0,1-4.55-4.54,9.65,9.65,0,0,1-1.68-6.12,2.87,2.87,0,0,1,.73-1.85,2.44,2.44,0,0,1,2.46-.39,8.12,8.12,0,0,1,2.22,1.37,22.63,22.63,0,0,0,8,4.35,19.17,19.17,0,0,0,8.19-.06.86.86,0,0,1,.39,0,.82.82,0,0,1,.39.41A9,9,0,0,1,167,245.8Z" style="fill:#50C878"></path><path d="M167,245.8a14.36,14.36,0,0,1,.78,3.63,9.69,9.69,0,0,1-.67,4.71,7.92,7.92,0,0,1-1.81,2.59c-.88.83-2.13,1.62-3.27,1s-2.69-1.27-4-1.9a49.72,49.72,0,0,1-7.81-4.52,18,18,0,0,1-4.55-4.54,9.65,9.65,0,0,1-1.68-6.12,2.87,2.87,0,0,1,.73-1.85,2.44,2.44,0,0,1,2.46-.39,8.12,8.12,0,0,1,2.22,1.37,22.63,22.63,0,0,0,8,4.35,19.17,19.17,0,0,0,8.19-.06.86.86,0,0,1,.39,0,.82.82,0,0,1,.39.41A9,9,0,0,1,167,245.8Z" style="fill:#fff;opacity:0.5"></path><path d="M144.69,238.76a2.44,2.44,0,0,1,2.46-.39,8.12,8.12,0,0,1,2.22,1.37c.91.7,1.82,1.36,2.76,2a5.94,5.94,0,0,1-1.61,4.76,5.45,5.45,0,0,1-4,1.5c-.33-.4-.64-.81-.93-1.24a9.65,9.65,0,0,1-1.68-6.12A2.87,2.87,0,0,1,144.69,238.76Z" style="fill:#c8856a"></path></g></g></g><g id="freepik--Plant--inject-173"><g id="freepik--plant--inject-173"><g id="freepik--Pot--inject-173"><path d="M41.36,443.77c-7.71-8-12.25-28.08-4.72-34.4h38.3c7.53,6.32,3,26.43-4.72,34.4L70,444l-.26.26c-.22.21-.45.42-.7.63l-.19.14c-.18.15-.37.3-.58.45s-.66.45-1,.64c-6.34,3.71-16.64,3.71-23,0h0a10.14,10.14,0,0,1-1-.65c-.19-.13-.36-.27-.54-.41l-.23-.18c-.24-.2-.46-.4-.67-.61l-.31-.3Z" style="fill:#37474f"></path><path d="M71.61,406.83c8.74,5.1,8.74,13.37,0,18.48s-22.9,5.1-31.64,0-8.74-13.38,0-18.48S62.88,401.73,71.61,406.83Z" style="fill:#455a64"></path><path d="M67.41,409.28c6.42,3.75,6.42,9.82,0,13.57s-16.82,3.75-23.24,0-6.42-9.82,0-13.57S61,405.54,67.41,409.28Z" style="fill:#263238"></path><path d="M44.17,415.72c6.42-3.74,16.82-3.74,23.24,0a10.7,10.7,0,0,1,3.84,3.57,10.68,10.68,0,0,1-3.84,3.56c-6.42,3.75-16.82,3.75-23.24,0a10.68,10.68,0,0,1-3.84-3.56A10.7,10.7,0,0,1,44.17,415.72Z" style="fill:#fff"></path></g><path d="M50.06,379.24C47.48,382.51,39.71,384,35.84,376c-3.63-7.51-7.47-14.59-8.62-17.36a2.92,2.92,0,0,1,1.58-3.92s-.1-4.27,7.32-1.94S49,359.05,52.64,365.88,54.81,377.93,50.06,379.24Z" style="fill:#50C878"></path><g style="opacity:0.5"><path d="M50.06,379.24C47.48,382.51,39.71,384,35.84,376c-3.63-7.51-7.47-14.59-8.62-17.36a2.92,2.92,0,0,1,1.58-3.92s-.1-4.27,7.32-1.94S49,359.05,52.64,365.88,54.81,377.93,50.06,379.24Z" style="fill:#fff"></path></g><path d="M54.5,389.57a40.78,40.78,0,0,0-1-4.25,60,60,0,0,0-3-8.12A61.34,61.34,0,0,0,41,362.43a52.55,52.55,0,0,0-7.13-6.94c-.08-.06-.12.1-.07.15a66.21,66.21,0,0,1,11.36,13.41,66.55,66.55,0,0,1,7.17,15.65c.47,1.54.93,3.09,1.34,4.65s.71,3.19,1.1,4.78c0,.16.3.24.29,0A29.53,29.53,0,0,0,54.5,389.57Z" style="fill:#50C878"></path><path d="M54.5,389.57a40.78,40.78,0,0,0-1-4.25,60,60,0,0,0-3-8.12A61.34,61.34,0,0,0,41,362.43a52.55,52.55,0,0,0-7.13-6.94c-.08-.06-.12.1-.07.15a66.21,66.21,0,0,1,11.36,13.41,66.55,66.55,0,0,1,7.17,15.65c.47,1.54.93,3.09,1.34,4.65s.71,3.19,1.1,4.78c0,.16.3.24.29,0A29.53,29.53,0,0,0,54.5,389.57Z" style="opacity:0.1"></path><path d="M59,373.17c-6.74,2.09-11.75-3.17-10-11.42s10.4-17.41,13.67-14.95c2-2.05,6.55-1.31,8.66,5.39S71.49,376.09,59,373.17Z" style="fill:#50C878"></path><g style="opacity:0.30000000000000004"><path d="M59,373.17c-6.74,2.09-11.75-3.17-10-11.42s10.4-17.41,13.67-14.95c2-2.05,6.55-1.31,8.66,5.39S71.49,376.09,59,373.17Z" style="fill:#fff"></path></g><path d="M62.92,351.82a90.74,90.74,0,0,0-4.48,14.82,145.22,145.22,0,0,0-2.6,15.52c-1.21,10.08-1.41,9.52-1.35,19.66q0,4.21.11,8.42c.06,2.89,0,5.81.26,8.69.09,1.1,1.66.81,1.68-.2.1-5.06-.18-10.13-.23-15.18a33.35,33.35,0,0,1,.1-4.24,211.84,211.84,0,0,1,2.72-30.38c.49-2.79,1-5.58,1.67-8.35s1.53-5.77,2.29-8.65C63.12,351.81,63,351.66,62.92,351.82Z" style="fill:#50C878"></path><path d="M62.92,351.82a90.74,90.74,0,0,0-4.48,14.82,145.22,145.22,0,0,0-2.6,15.52c-1.21,10.08-1.41,9.52-1.35,19.66q0,4.21.11,8.42c.06,2.89,0,5.81.26,8.69.09,1.1,1.66.81,1.68-.2.1-5.06-.18-10.13-.23-15.18a33.35,33.35,0,0,1,.1-4.24,211.84,211.84,0,0,1,2.72-30.38c.49-2.79,1-5.58,1.67-8.35s1.53-5.77,2.29-8.65C63.12,351.81,63,351.66,62.92,351.82Z" style="opacity:0.1"></path><path d="M43.37,395.47c-.86,4.36-6.84,7.51-13.75,4.65S9.1,379.31,15.32,377.34c-.34-3.26,18.47-5.94,27.78,5.53C49.86,391.21,43.37,395.47,43.37,395.47Z" style="fill:#50C878"></path><g style="opacity:0.30000000000000004"><path d="M43.37,395.47c-.86,4.36-6.84,7.51-13.75,4.65S9.1,379.31,15.32,377.34c-.34-3.26,18.47-5.94,27.78,5.53C49.86,391.21,43.37,395.47,43.37,395.47Z" style="fill:#fff"></path></g><path d="M53.24,402a30.38,30.38,0,0,0-2.8-3.09c-2-2-4.13-3.88-6.34-5.67a85.68,85.68,0,0,0-14.57-9.37,76.43,76.43,0,0,0-8.79-4c-.09,0,0,.14,0,.16,2.51,1.19,5,2.34,7.46,3.7a85.47,85.47,0,0,1,7.31,4.61,106.4,106.4,0,0,1,12.86,10.53c1.13,1.09,2.22,2.24,3.36,3.31s2.47,2.16,3.61,3.33c.17.17.47.1.29-.15C54.82,404.2,54.09,403,53.24,402Z" style="fill:#50C878"></path><path d="M53.24,402a30.38,30.38,0,0,0-2.8-3.09c-2-2-4.13-3.88-6.34-5.67a85.68,85.68,0,0,0-14.57-9.37,76.43,76.43,0,0,0-8.79-4c-.09,0,0,.14,0,.16,2.51,1.19,5,2.34,7.46,3.7a85.47,85.47,0,0,1,7.31,4.61,106.4,106.4,0,0,1,12.86,10.53c1.13,1.09,2.22,2.24,3.36,3.31s2.47,2.16,3.61,3.33c.17.17.47.1.29-.15C54.82,404.2,54.09,403,53.24,402Z" style="opacity:0.1"></path><path d="M60.43,403.38c-3.62-1.59-2.93-6.17,2.87-10.83s18.18-4.8,18.3-2.34c2.64.51,1.05,8.8-6.29,15.29S59.79,408.57,60.43,403.38Z" style="fill:#50C878"></path><g style="opacity:0.30000000000000004"><path d="M60.43,403.38c-3.62-1.59-2.93-6.17,2.87-10.83s18.18-4.8,18.3-2.34c2.64.51,1.05,8.8-6.29,15.29S59.79,408.57,60.43,403.38Z" style="fill:#fff"></path></g><path d="M69.4,396.7a30.28,30.28,0,0,0-13.67,12c-.19.3.28.88.48.56a35.36,35.36,0,0,1,13.2-12.5S69.45,396.68,69.4,396.7Z" style="fill:#50C878"></path><path d="M69.4,396.7a30.28,30.28,0,0,0-13.67,12c-.19.3.28.88.48.56a35.36,35.36,0,0,1,13.2-12.5S69.45,396.68,69.4,396.7Z" style="opacity:0.1"></path><path d="M60.68,411.7c-4.19,4.11.44,9.22,7.24,11.74a24.27,24.27,0,0,0,17.6-.82c3.28-1.63,4-2.45,4-2.45A42.14,42.14,0,0,0,86,411.84,17.43,17.43,0,0,0,68.86,404C60.15,405.08,59.44,408.7,60.68,411.7Z" style="fill:#50C878"></path><g style="opacity:0.5"><path d="M60.68,411.7c-4.19,4.11.44,9.22,7.24,11.74a24.27,24.27,0,0,0,17.6-.82c3.28-1.63,4-2.45,4-2.45A42.14,42.14,0,0,0,86,411.84,17.43,17.43,0,0,0,68.86,404C60.15,405.08,59.44,408.7,60.68,411.7Z" style="fill:#fff"></path></g><path d="M78.76,414.45a44.19,44.19,0,0,0-10.65-3.95c-3.65-.7-8.14-.73-11.09,1.87-1.14,1-2.67,3.19-1.73,4.73.09.16.55.44.65.14a14.39,14.39,0,0,1,.94-2.87,5.87,5.87,0,0,1,2.28-2.14,13.5,13.5,0,0,1,7.72-1.31c4.15.4,8.06,2.06,11.88,3.63C78.8,414.56,78.8,414.47,78.76,414.45Z" style="fill:#50C878"></path><path d="M78.76,414.45a44.19,44.19,0,0,0-10.65-3.95c-3.65-.7-8.14-.73-11.09,1.87-1.14,1-2.67,3.19-1.73,4.73.09.16.55.44.65.14a14.39,14.39,0,0,1,.94-2.87,5.87,5.87,0,0,1,2.28-2.14,13.5,13.5,0,0,1,7.72-1.31c4.15.4,8.06,2.06,11.88,3.63C78.8,414.56,78.8,414.47,78.76,414.45Z" style="opacity:0.1"></path><path d="M62.32,385.41c-1,3.68,3.65,7.12,9.5,5.15s11.92-3.8,16.91-3.86,8.14-3.34,7.12-5.55-2.24-7.47-14.94-9-18.43,3-21.09,6.5S60.2,386,62.32,385.41Z" style="fill:#50C878"></path><g style="opacity:0.5"><path d="M62.32,385.41c-1,3.68,3.65,7.12,9.5,5.15s11.92-3.8,16.91-3.86,8.14-3.34,7.12-5.55-2.24-7.47-14.94-9-18.43,3-21.09,6.5S60.2,386,62.32,385.41Z" style="fill:#fff"></path></g><path d="M85.92,377.67a15.67,15.67,0,0,0-4.1-.38,25,25,0,0,0-4,.33,30.47,30.47,0,0,0-7.46,2.32c-4.47,2-8.9,4.56-11.8,8.58a28.94,28.94,0,0,0-3.74,7c-.17.48.75.75,1,.32A50.33,50.33,0,0,1,59,389.75a18.76,18.76,0,0,1,4.86-5.07,38.49,38.49,0,0,1,13.48-6.16,26,26,0,0,1,4.29-.64A41.48,41.48,0,0,1,86,378C86.14,378.05,86.05,377.7,85.92,377.67Z" style="fill:#50C878"></path><path d="M85.92,377.67a15.67,15.67,0,0,0-4.1-.38,25,25,0,0,0-4,.33,30.47,30.47,0,0,0-7.46,2.32c-4.47,2-8.9,4.56-11.8,8.58a28.94,28.94,0,0,0-3.74,7c-.17.48.75.75,1,.32A50.33,50.33,0,0,1,59,389.75a18.76,18.76,0,0,1,4.86-5.07,38.49,38.49,0,0,1,13.48-6.16,26,26,0,0,1,4.29-.64A41.48,41.48,0,0,1,86,378C86.14,378.05,86.05,377.7,85.92,377.67Z" style="opacity:0.1"></path><path d="M51.9,406.17c-1-3.79-5.79-5.91-12.07-6.38a16.43,16.43,0,0,0-15.61,8c-3.28,5.61-4.65,10.08-2.65,10.82S32,420.52,37.44,421s12.24-.49,16.68-4.63S57.1,407,51.9,406.17Z" style="fill:#50C878"></path><g style="opacity:0.30000000000000004"><path d="M51.9,406.17c-1-3.79-5.79-5.91-12.07-6.38a16.43,16.43,0,0,0-15.61,8c-3.28,5.61-4.65,10.08-2.65,10.82S32,420.52,37.44,421s12.24-.49,16.68-4.63S57.1,407,51.9,406.17Z" style="fill:#fff"></path></g><path d="M52.14,405.67a16.65,16.65,0,0,0-6.78-.31,29.87,29.87,0,0,0-6.4,1.47,41,41,0,0,0-6.34,2.85c-1.06.58-2.1,1.2-3.13,1.85a23.64,23.64,0,0,0-2.8,1.94s0,.16,0,.13c1-.46,2-1.11,3-1.66s2.13-1.19,3.22-1.74a46.19,46.19,0,0,1,6.28-2.66,30.31,30.31,0,0,1,6.66-1.43,40.84,40.84,0,0,1,6.35.17C52.65,406.3,52.4,405.76,52.14,405.67Z" style="fill:#50C878"></path><path d="M52.14,405.67a16.65,16.65,0,0,0-6.78-.31,29.87,29.87,0,0,0-6.4,1.47,41,41,0,0,0-6.34,2.85c-1.06.58-2.1,1.2-3.13,1.85a23.64,23.64,0,0,0-2.8,1.94s0,.16,0,.13c1-.46,2-1.11,3-1.66s2.13-1.19,3.22-1.74a46.19,46.19,0,0,1,6.28-2.66,30.31,30.31,0,0,1,6.66-1.43,40.84,40.84,0,0,1,6.35.17C52.65,406.3,52.4,405.76,52.14,405.67Z" style="opacity:0.1"></path></g></g><g id="freepik--musical-notes--inject-173"><path id="freepik--musical-note--inject-173" d="M116.58,95.49a6.29,6.29,0,0,1,2.56-.67,13.63,13.63,0,0,1,3.54.38,25,25,0,0,0,4.7.76,5.88,5.88,0,0,0,4.36-1.56,6.09,6.09,0,0,1-2.74-.34c-2.1-.76-3.8-2.92-5.7-4.1-2.82-1.75-5.59-1.59-9-.69,0,2.91,0,5.83,0,8.74q0,3.43,0,6.87c0,.21-.08,3.11-.08,3.11a5.94,5.94,0,0,0-2.56-.6,4.91,4.91,0,1,0,4.91,4.9Z" style="fill:#ebebeb"></path><path id="freepik--musical-note--inject-173" d="M343.19,130.82a6.29,6.29,0,0,1,2.64.13,13.56,13.56,0,0,1,3.25,1.41,24.6,24.6,0,0,0,4.23,2.12,5.89,5.89,0,0,0,4.61-.18,6.26,6.26,0,0,1-2.5-1.14c-1.77-1.35-2.74-3.91-4.19-5.59-2.16-2.51-4.85-3.18-8.36-3.34-.83,2.78-1.74,5.54-2.61,8.31-.68,2.17-1.37,4.34-2.05,6.51l-1,2.94a5.91,5.91,0,0,0-2.24-1.34,4.89,4.89,0,1,0,3.2,6.12Z" style="fill:#f5f5f5"></path><path id="freepik--musical-note--inject-173" d="M447.48,110.92a5,5,0,0,1,1.27-1.6,10.3,10.3,0,0,1,2.34-1.42,19.21,19.21,0,0,0,3.23-1.72,4.56,4.56,0,0,0,1.94-3,4.82,4.82,0,0,1-1.84,1.08c-1.64.51-3.69,0-5.4.14-2.54.24-4.16,1.64-5.83,3.78,1.37,1.77,2.71,3.57,4.07,5.36l3.19,4.21,1.4,1.94a4.57,4.57,0,0,0-1.84.82,3.78,3.78,0,1,0,5.29.72Z" style="fill:#f5f5f5"></path><path id="freepik--musical-note--inject-173" d="M30.71,168.34a6.63,6.63,0,0,1,1.19-2.53,14.62,14.62,0,0,1,2.7-2.63,25.49,25.49,0,0,0,3.8-3.3,6.27,6.27,0,0,0,1.68-4.61,6.58,6.58,0,0,1-2.13,2c-2,1.19-5,1.11-7.19,1.86-3.34,1.11-5.08,3.48-6.66,6.86,2.39,1.95,4.74,4,7.11,5.93l5.58,4.65,2.48,2.18a6.19,6.19,0,0,0-2.22,1.67,5.19,5.19,0,1,0,7.31-.68Z" style="fill:#ebebeb"></path><path id="freepik--musical-note--inject-173" d="M38.45,106.18l8.15,17.68a5,5,0,0,0-1.67.43,5.1,5.1,0,1,0,6.76,2.48l-7.3-15.84,14-11.56h0l7.27,15.69a5.08,5.08,0,1,0,5.1,2.92h0L58.63,91.78Z" style="fill:#f5f5f5"></path><path id="freepik--musical-note--inject-173" d="M29.09,216.49,26,234a4.86,4.86,0,0,0-1.48-.55,4.64,4.64,0,1,0,3.78,5.37l2.74-15.65,16.48-1.39h0l-2.69,15.51A4.61,4.61,0,0,0,38,240.48a4.64,4.64,0,0,0,9.14,1.58h0l4.48-25.89Z" style="fill:#f5f5f5"></path><path id="freepik--musical-note--inject-173" d="M387.48,113.47l6.18,13.39a3.85,3.85,0,1,0,3.86,2.2l-5.53-12,10.61-8.75h0l5.51,11.89a3.62,3.62,0,0,0-1.27.33,3.86,3.86,0,1,0,5.12,1.88h0l-9.19-19.84Z" style="fill:#ebebeb"></path><path id="freepik--musical-note--inject-173" d="M356.77,175.46l-4.41,17.73a4.47,4.47,0,0,0-1.47-.67,4.78,4.78,0,1,0,3.49,5.79l4-15.89,17-.23h0L371.49,198a4.43,4.43,0,0,0-1.48-.67,4.78,4.78,0,1,0,3.5,5.79h0l6.5-26.31Z" style="fill:#ebebeb"></path><path id="freepik--musical-note--inject-173" d="M335.81,71l-5.18,12.11a3.35,3.35,0,0,0-1-.65A3.44,3.44,0,1,0,331.48,87l4.64-10.85L348.27,78h0l-4.58,10.76a3.44,3.44,0,1,0-3.67,5.7,3.45,3.45,0,0,0,4.52-1.82h0l7.65-18Z" style="fill:#ebebeb"></path></g><g id="freepik--character-2--inject-173"><g id="freepik--Character--inject-173"><g id="freepik--Bottom--inject-173"><path d="M409.42,345.24l-6-10-11.25,7.15L404.61,356s8.43,0,9.56-3.4S411.29,346.38,409.42,345.24Z" style="fill:#ffbda7"></path><path d="M404.78,337l1.53,2.42a12,12,0,0,1-4.33,5.06,15.7,15.7,0,0,1-5.64,2.76l-3.91-4.06Z" style="fill:#37474f"></path><path d="M397.14,347.88l.81.87s2,.85,5.6-.88a7.53,7.53,0,0,0,4.1-5.5l-.69-1.18s.63-1.06,1.77.82,2.11,3.91,3.92,4.82,3.51,1.25,4.91,3.62-.06,4.52,1.37,7.41,3.65,8.13,0,14.44-7.84,6.69-9.7,5.85-3.29-2.53-2.73-8S406,360,403.81,357s-5-5.78-6-7S396.54,348.46,397.14,347.88Z" style="fill:#263238"></path><polygon points="402.8 348.15 396.23 352.63 392.23 355.21 397.89 364.09 410.83 357.66 402.8 348.15" style="fill:#ffbda7"></polygon><path d="M403.23,347.45l-2.61,1.78s-.35,2.53,1.62,6.47,3.42,4.92,3.42,4.92l4.21-2.15Z" style="fill:#37474f"></path><path d="M398.09,351.36l-.62.42S396,354,397.91,358s4.52,3.84,4.52,3.84l1.15-.58s.58.64-1.32,1.65-5.94,2.34-7.84,3.37-5.42,2.93-8.42,4.81-6.1,4-12.21,2c-6.72-2.25-6.21-8.3-1.05-11.41,4.92-2.95,6.44-2.62,11.32-4.37a106.68,106.68,0,0,0,12.35-5.84C397.82,350.7,398.09,351.36,398.09,351.36Z" style="fill:#263238"></path><path d="M416.66,310.38s-20.53-4.48-31.1-4.15c-11.5.36-13.55,5.84-12.93,12.73.72,7.87,13.6,20.6,18.5,25.18a4,4,0,0,0,4.28.57c4.39-1.86,7.12-4,9.22-7.36a1.79,1.79,0,0,0,0-1.89l-.9-1.43L414,338.42l1.67-1.81Z" style="fill:#455a64"></path><path d="M399.86,324.25c2.72,4.17,5.69,8.88,6.75,11L403.73,334c-3.89-7.09-5.48-12.94-13-16.88C390.72,317.15,395.82,318.06,399.86,324.25Z" style="fill:#37474f"></path><path d="M416.59,312.07l45.23,11.7s1.62,14-2.16,22.41S446.35,356.5,442,356.36c-5.26-.18-13-2.95-13-2.95s-1.74,1.66-7.35,3.78c-2.31.88-6.71,2-9.57,2.77a4.51,4.51,0,0,1-4.76-1.61c-1.71-2.28-4-6-4.51-10a4.12,4.12,0,0,1,1.72-3.88l11.15-7.91Z" style="fill:#455a64"></path><path d="M438.5,353.5c3.88.61,12.57-.6,16.23-7.49s2.93-16.37,2.46-23.44l1.24.32,3.39.88h0s1.62,14-2.16,22.41S446.35,356.5,442,356.36c-5.26-.18-13-2.95-13-2.95a16.88,16.88,0,0,0,3.48-4.26s-.41,1.67-.82,2.83A40.17,40.17,0,0,0,438.5,353.5Z" style="fill:#37474f"></path><path d="M413.41,338.22s3-2.21,4.86-3.55c3.26-2.29,4-3.21,8.46-3.14,6.38.11,18.57,1.92,18.57,1.92s-12.75-3.35-17.14-4.2-7.15-.53-9.75,1.51-7.36,6.4-7.36,6.4Z" style="fill:#37474f"></path><path d="M417.62,332.7a11.93,11.93,0,0,1-1.5-7.9s-3,5.06-1.32,10.43Z" style="fill:#37474f"></path></g><g id="freepik--Top--inject-173"><path d="M370.1,242c1.22-1.35,2.81.29,5.19,3.07,2.18,2.56,4.79,5.83,5.53,5.75,1-.11.33-3.42,1.45-5.18s2.58-1.41,2.57.34c0,1.5.91,3.76.81,6.31,0,1.29.3,3.93,1.58,5.23,1,1.05,15,10.62,15,10.62a124.83,124.83,0,0,0,15.08-.75c3.8-.49,7.3-.28,13.48.15,1,1.33,8.08,17,.89,17.6,0,0-17-.79-23.39-1.19-6.28-.39-9.08-.43-11.4-2.11-6.22-4.47-9.82-9.82-17.11-15.46-1.9-1.47-3.94-2.15-5.56-3.22a15.89,15.89,0,0,1-4.78-4.29,2.38,2.38,0,0,1-.56-1.92c.09-.33.3-.63.39-1a13.71,13.71,0,0,1,.28-1.72c.31-.69,1.35-1,1.62-1.71.11-.3,0-1.32.24-1.57.45-.52.81-.56,1.27-.91.25-.19.85-.46.7-.86s-1-1.27-2.38-3.56S369.27,242.89,370.1,242Z" style="fill:#b16668"></path><path d="M431.2,266a107.24,107.24,0,0,0-13.68.89c-6.75.77-9.35,1-9.35,1-3.47,3.12-2.53,14.2,1.14,16.68l18.09,1Z" style="fill:#455a64"></path><path d="M376.5,250.31c1.2,1.83,3,3.5,2.59,4.7a2,2,0,0,0-2.62,2.55,1.59,1.59,0,0,1-1.55.57,1.64,1.64,0,0,1-1.59,1.78c.61.31,2,.45,2.12-.91,0,0,1.94-.24,1.9-1.86,0,0-.05,1.83,2.3,3.32a6.12,6.12,0,0,1-1.46-3.75,2.49,2.49,0,0,0,1.69-1.91C380.08,253.34,376.5,250.31,376.5,250.31Z" style="fill:#9a4a4d"></path><g id="freepik--Chest--inject-173"><path d="M459.68,273c4.19,1.93,4.18,16.93,2.44,55.11-11,7.07-43.64.16-45.35-14.39-.35-6.74.41-22.24,1-28.84.74-7.94,2.14-12.79,6.09-15.68,7-5.11,13.73-3.32,19.82-2.1C450.6,268.46,456,271.29,459.68,273Z" style="fill:#50C878"></path><path d="M432.29,276.8c-4.29-2.34-2-6.75.39-8.27a30.5,30.5,0,0,1,5.28-2.32,30.29,30.29,0,0,1,3.56.42l.2,0,2,.4a50,50,0,0,1,9.09,2.8c.22,1.17-3.41,4.17-5.88,5.72C443.69,277.62,436.58,279.14,432.29,276.8Z" style="fill:#455a64"></path><path d="M445.84,265.92c4.41-3.6,10-5.7,13.26-12.76,3.68-7.94,2.37-16-2.36-18.16,0,0,.54-6.13-6.61-10.39a24.06,24.06,0,0,0-12.7-2.9,24.53,24.53,0,0,0-6.49.94c-2.24.66-4.1,1.9-6.52,1.8-1.57-.07-3.1-.44-4.67-.56a.49.49,0,0,0-.61.37,4.9,4.9,0,0,0,1.44,5.54,6.23,6.23,0,0,0-2.93,3.56,3.69,3.69,0,0,0,1.52,4.11c-.87.73-1,2-1,3.16,0,2.41,2.13,5,3.82,6.49a25.78,25.78,0,0,0,6.74,4.1c1.5.68,3,1.3,4.51,2a12.45,12.45,0,0,1,2.28,1.14,8.47,8.47,0,0,1,1.18,1.46l6.77,8.31A5.62,5.62,0,0,0,445.84,265.92Z" style="fill:#263238"></path><path d="M449.57,251.73a.86.86,0,0,0,.18.2c1,.85,1.24-1.08,2.49-2.22a2.9,2.9,0,0,1,2.49-.65,3.7,3.7,0,0,1,3.18,2.56,5.43,5.43,0,0,1-4.11,6.62,4.4,4.4,0,0,1-4.59-1.54l1.16,12.93s-3.92,5.55-10.45,6.32c-7.9.95-9.37-1.72-8-4.81l-.53-5.8a18.37,18.37,0,0,1-5.57-1.53,11,11,0,0,1-6-9.4c-.16-2.84,1-5.19,1.34-8,.2-1.67.41-4.33.59-5.4a11.52,11.52,0,0,1,.83-2.77c2.46.7,8.9.73,14.23-3.1a12.23,12.23,0,0,1-7.79,5.22c6.83,3.31,14.16.28,16.89-3.85a11.06,11.06,0,0,0,.12,6,11.32,11.32,0,0,0,3.49,5.09,6.58,6.58,0,0,0-.33,3.14A2,2,0,0,0,449.57,251.73Z" style="fill:#b16668"></path><path d="M437.37,243.77l3.67,2.34a2.28,2.28,0,0,0-.69-3.08A2.12,2.12,0,0,0,437.37,243.77Z" style="fill:#263238"></path><path d="M435.2,255.38l-5.87.45a3.1,3.1,0,0,0,3.26,2.78A2.88,2.88,0,0,0,435.2,255.38Z" style="fill:#9a4a4d"></path><path d="M434.43,256.47a2,2,0,0,1,.61.24,2.83,2.83,0,0,1-2.45,1.9,3.39,3.39,0,0,1-.64,0,1.89,1.89,0,0,1,0-.47A2.1,2.1,0,0,1,434.43,256.47Z" style="fill:#f28f8f"></path><path d="M439.62,248.25a1.79,1.79,0,0,1-3.51-.7,1.79,1.79,0,0,1,3.51.7Z" style="fill:#263238"></path><path d="M427.12,245.77a1.79,1.79,0,1,1-1.41-2.1A1.79,1.79,0,0,1,427.12,245.77Z" style="fill:#263238"></path><path d="M423.25,242.24l4.34-.59a2.1,2.1,0,0,0-2.38-1.9A2.3,2.3,0,0,0,423.25,242.24Z" style="fill:#263238"></path><polygon points="431.64 244.86 429.71 252.85 425.45 250.74 431.64 244.86" style="fill:#9a4a4d"></polygon><path d="M431.42,265.34s6.19.25,11-1.86a10.69,10.69,0,0,0,4.51-4.52s-1.15,3.32-3,4.9c-4.87,4.13-12.31,3.57-12.31,3.57Z" style="fill:#9a4a4d"></path><path d="M431.86,259.47Z" style="fill:#b16668"></path><path d="M436.23,259.4Z" style="fill:#b16668"></path></g><path d="M456.87,272.19c8.52,2.71,9.93,6.74,10.77,13.94.78,6.69,3.18,24.89,4,31.31,1.06,8.63,1.58,26.45,2.9,27.83s9.85,3.86,11.69,5.37,4.33,5.57,5,6.36.64,2.18-2.5,3c-3.36.89-4.83,1.26-7.52-.46-1.11-.7-3.66-2.67-4.71-3.37a10.22,10.22,0,0,0-4.67-1.52c-1.2,0,1.08,1.6,2.47,2.68,1,.81,2,2.92.7,4-.31.25-3.55-1.72-5.47-2.58a9.38,9.38,0,0,1-5.28-7.48c-.17-3.32-.88-6.91-2.62-12.57a124,124,0,0,1-4.49-20.21c-.89-8-5.89-25.31-5.89-25.31C448.84,283,453.15,273.58,456.87,272.19Z" style="fill:#b16668"></path><path d="M452.81,304.89h1.51a42.85,42.85,0,0,0,8.06-.95,28.07,28.07,0,0,0,8.26-3.2c-.95-7.39-2.25-18.49-3.89-21.69-3-5.88-6.36-6.17-10.07-7.32-6.76,3.53-7.77,15.25-6.32,22.66C450.89,297.11,451.86,301,452.81,304.89Z" style="fill:#455a64"></path></g></g></g><g id="freepik--character-1--inject-173"><g id="freepik--character--inject-173"><g id="freepik--character--inject-173"><path d="M395.27,419.65C397,410.56,398,394.16,396,387c-1.2-4.27-6.64-6.22-11.9-4.68-8.24,2.42-25.79,12.74-25.79,12.74Z" style="fill:#50C878"></path><path d="M395.27,419.65C397,410.56,398,394.16,396,387c-1.2-4.27-6.64-6.22-11.9-4.68-8.24,2.42-25.79,12.74-25.79,12.74Z" style="opacity:0.5"></path><path d="M394.31,401.9l-32.76,5.68-1.36-.12,1.82-4.53c-14.68-1.56-39.19-12.66-51.88-6.14-6.42,3.29-9.07,12.79-5.22,19.41,3.13,5.37,13.63,12.44,23.95,17,11.79,5.16,19.61,8.54,29,9,11.54.58,17-2.38,22.17-5,5.43-2.71,13.37-4.81,15-15.88A56.8,56.8,0,0,0,394.31,401.9Z" style="fill:#50C878"></path><path d="M394.31,401.9l-32.76,5.68-1.36-.12,1.82-4.53c-14.68-1.56-39.19-12.66-51.88-6.14-6.42,3.29-9.07,12.79-5.22,19.41,3.13,5.37,13.63,12.44,23.95,17,11.79,5.16,19.61,8.54,29,9,11.54.58,17-2.38,22.17-5,5.43-2.71,13.37-4.81,15-15.88A56.8,56.8,0,0,0,394.31,401.9Z" style="opacity:0.45"></path><path d="M317.77,398c7,1,7.79,6.47,7.79,6.47l26.78,3.39.58-2-24.34-3C326.32,399.22,324,397.23,317.77,398Z" style="opacity:0.2"></path><polygon points="355.27 343.25 357.3 360.49 375.36 358.87 373.43 338.17 355.27 343.25" style="fill:#ffbda7"></polygon><path d="M393.27,409.26a436.9,436.9,0,0,0-5.51-48.77c-1.54-8.44-3.66-16.09-10.63-14.89l-2.89.43c-.22,4.73-9.55,5.06-18.4,2.07-2.51.59-9.46,3.5-9.46,3.5-6.36,3.84-7.86,8-7.86,24.67s1.15,29.13,1.28,39C353.68,425.64,386.06,419.65,393.27,409.26Z" style="fill:#50C878"></path><path d="M393.27,409.26a436.9,436.9,0,0,0-5.51-48.77c-1.54-8.44-3.66-16.09-10.63-14.89l-2.89.43c-.22,4.73-9.55,5.06-18.4,2.07-2.51.59-9.46,3.5-9.46,3.5-6.36,3.84-7.86,8-7.86,24.67s1.15,29.13,1.28,39C353.68,425.64,386.06,419.65,393.27,409.26Z" style="fill:#fff;opacity:0.30000000000000004"></path><g id="freepik--head--inject-173"><path d="M346.69,317.78s-6.16,5.63-6.15,6.82c0,1.57,3.56,2.49,3.56,2.49Z" style="fill:#f0997a"></path><path d="M358.81,303.93c-4.27,1.09-11,3.3-13.38,16.92-6.74,11.83-2.57,18.14-.66,20.19,2.16,2.33,7.46,4.16,11.29,3.88,4.8-.36,15.6-2.91,21.86-9.31,7.37-7.54,8-18.74,2.85-24.75C373.58,302.41,362.43,303,358.81,303.93Z" style="fill:#ffbda7"></path><path d="M353.63,344.85l-.09-2.5s-5.9.37-9-1.53C346.35,343,350.25,344.45,353.63,344.85Z" style="fill:#f0997a"></path><path d="M358,326.59a5.11,5.11,0,0,1,2.47-2,4.43,4.43,0,0,1,4.58,1c3.53,3-.43,8.18-3.2,9.44a4.22,4.22,0,0,1-3.34.12c-.48-.21-1.57-1.65-1.81-1.57a1,1,0,0,0-.52.69c-.62,1.82-.92,3.72-1.42,5.57a11.2,11.2,0,0,1-2.61,5,5.32,5.32,0,0,1-5.24,1.53,9.48,9.48,0,0,0,9.6,3.47c-.13.3-.74.57-1.45.71,1.73,1.4,5.64,2.35,8.5,2.4s6.12-.54,8.28-2.46a1.28,1.28,0,0,1-1.22,1.13,9.08,9.08,0,0,0,7.52.71,6.35,6.35,0,0,0,4.11-6,3.84,3.84,0,0,1,1.53,3.81c1.9-.75,2.81-3,2.86-5s-.55-4-.68-6.09c-.2-3,.59-5.88,1.1-8.78a27.89,27.89,0,0,0,.24-8.26,8.38,8.38,0,0,0-2.57-5.19c.7-5.89-4.42-10.6-9.23-13-4.33-2.19-9.78-4.06-14.66-3.12a14.85,14.85,0,0,0-6.3,2.78,13.75,13.75,0,0,0-2.37,2.39c-.26.35-1.89,2.49-1.65,2.89,0,0,1,1.57,5.47,3.37,0,0-2.16,7.34.57,9.65,0,0-3.38,4.56.28,6.5Z" style="fill:#263238"></path><path d="M356.29,313.48a8.17,8.17,0,0,0-1.43,4,41.58,41.58,0,0,0-.14,4.17,17.5,17.5,0,0,1-4-.84c-1.14-.39-.34-4.58-.1-5.59,0,0-1.87,2.75-1.33,5.51,0,0-3.44-1-5-3.14A13.83,13.83,0,0,1,348.6,304c5.16-4.33,12.52-5,17.1-2.47Z" style="fill:#263238"></path></g><path d="M322,387.54c2.47-7.37,4.26-10.66,8.19-21.41,3.38-9.24,7.62-11.48,16.22-14.54,7.77,7.46-.26,26.12-2.51,31s-5.75,14.38-9.92,20.51c-2.72,4-8.55,5.89-12.73,2.16S319.78,394.15,322,387.54Z" style="fill:#ffbda7"></path></g></g></g><g id="freepik--speech-bubble--inject-173"><g id="freepik--speech-bubble--inject-173"><g id="freepik--speech-bubble--inject-173"><path d="M416.18,181A22.91,22.91,0,0,0,422,196.82l1.86,1.86A23,23,0,0,0,457,167l-1.77-1.94A23,23,0,0,0,416.18,181Z" style="fill:#fafafa"></path><path d="M414.23,180.93A25,25,0,0,0,434.46,206l2.64,7.29a1.45,1.45,0,0,0,2.7.06l3-7.16a24.95,24.95,0,1,0-28.53-25.26Zm25.48-22.42a22.9,22.9,0,0,1,15.55,6.58L457,167a23,23,0,0,1-33.13,31.65L422,196.82a23,23,0,0,1,17.67-38.31Z" style="fill:#455a64"></path></g><path id="freepik--Heart--inject-173" d="M439.18,195.5c16.23-8.65,17.53-17.92,12.82-22.46-4.23-4.06-12-1.38-12.82,4.42-.86-5.8-8.6-8.48-12.82-4.42C421.64,177.58,423,186.85,439.18,195.5Z" style="fill:#50C878"></path></g></g></svg>
